<svg xmlns="http://www.w3.org/2000/svg" viewBox="0 0 133.19 186.32"><defs><style>.cls-1,.cls-7{fill:#55007c;}.cls-2,.cls-4{fill:#8612ad;}.cls-3{fill:#fff;}.cls-4,.cls-6{opacity:0.5;}.cls-5,.cls-6,.cls-9{fill:#70bde8;}.cls-7{font-size:35.33px;letter-spacing:0.1em;}.cls-7,.cls-9{font-family:Bebas;}.cls-8{letter-spacing:0.12em;}.cls-9{font-size:7.25px;letter-spacing:0.45em;}.cls-10{letter-spacing:0.5em;}.cls-11{letter-spacing:0.52em;}</style></defs><g id="Capa_2" data-name="Capa 2"><g id="Capa_1-2" data-name="Capa 1"><polygon class="cls-1" points="120.67 38.41 66.57 7.21 12.5 38.46 12.53 86.36 66.63 117.56 120.69 86.3 120.67 38.41"/><polygon class="cls-2" points="133.19 66.39 73.08 34.39 73.08 0 133.19 30.68 133.19 66.39"/><polygon class="cls-3" points="73.08 97.07 73.08 62.68 133.19 30.68 133.19 66.39 73.08 97.07"/><polygon class="cls-4" points="73.08 97.07 73.08 62.68 133.19 30.68 133.19 66.39 73.08 97.07"/><polygon class="cls-5" points="60.11 124.76 60.11 90.37 0 58.37 0 94.08 60.11 124.76"/><polygon class="cls-3" points="0 94.08 60.11 62.08 60.11 27.69 0 58.37 0 94.08"/><polygon class="cls-6" points="0 94.08 60.11 62.08 60.11 27.69 0 58.37 0 94.08"/><text class="cls-7" transform="translate(21.18 173.08)">C<tspan class="cls-8" x="23.99" y="0">ODE</tspan></text><text class="cls-9" transform="translate(24.2 184.51)">T<tspan class="cls-10" x="6.83" y="0">A</tspan><tspan class="cls-11" x="14.93" y="0">GLINE HERE</tspan></text></g></g></svg>