<?xml version="1.0" encoding="utf-8"?>
<!-- Generator: Adobe Illustrator 25.2.1, SVG Export Plug-In . SVG Version: 6.00 Build 0)  -->
<svg version="1.1" id="Layer_1" xmlns="http://www.w3.org/2000/svg" xmlns:xlink="http://www.w3.org/1999/xlink" x="0px" y="0px"
	 viewBox="0 0 450 450" style="enable-background:new 0 0 450 450;" xml:space="preserve">
<style type="text/css">
	.st0{fill:#C12106;}
	.st1{fill:#FDA014;}
	.st2{fill:#9FB603;}
	.st3{fill:#FDC63A;}
	.st4{fill:#16C1D1;}
	.st5{fill:#A81D05;}
	.st6{fill:#FFFFFF;}
	.st7{fill:#EA932A;}
	.st8{fill:#D4A665;}
	.st9{fill:#B58E56;}
	.st10{fill:#14B0BF;}
	.st11{fill:#D9D9D9;}
	.st12{fill:#C7C7C7;}
	.st13{fill:#3B4350;}
	.st14{fill:#FD7514;}
	.st15{fill:#CFCFCF;}
	.st16{fill:#969696;}
	.st17{fill:#108994;}
	.st18{fill:#E9B770;}
	.st19{fill:#593807;}
	.st20{fill:#EA741A;}
	.st21{fill:#BFBFBF;}
	.st22{fill:url(#SVGID_1_);}
	.st23{fill:#EFEFEF;}
	.st24{fill:#D3D3D3;}
	.st25{fill:url(#SVGID_2_);}
	.st26{fill:url(#SVGID_3_);}
	.st27{fill:url(#SVGID_4_);}
	.st28{fill:#E45040;}
	.st29{fill:#AB1100;}
	.st30{fill:#D12407;}
	.st31{fill:url(#SVGID_5_);}
	.st32{fill:url(#SVGID_6_);}
	.st33{fill:url(#SVGID_7_);}
	.st34{fill:url(#SVGID_8_);}
	.st35{fill:url(#SVGID_9_);}
	.st36{fill:url(#SVGID_10_);}
	.st37{fill:url(#SVGID_11_);}
	.st38{fill:url(#SVGID_12_);}
	.st39{fill:url(#SVGID_13_);}
	.st40{fill:url(#SVGID_14_);}
	.st41{fill:url(#SVGID_15_);}
	.st42{fill:url(#SVGID_16_);}
	.st43{fill:url(#SVGID_17_);}
	.st44{fill:url(#SVGID_18_);}
	.st45{fill:#FD8114;}
	.st46{fill:#D1D1D1;}
	.st47{fill:#871704;}
	.st48{fill:none;}
	.st49{font-family:'ARCO-Typography-Regular';}
	.st50{font-size:19.6824px;}
	.st51{font-size:13.1216px;}
	.st52{font-size:11.4814px;}
	.st53{fill:#F43776;}
	.st54{font-size:20.6275px;}
</style>
<g>
	<g>
		<g>
			<path class="st0" d="M-5.9,38.4c1.7-0.3,3.1,1.5,3.2,4.1c0.2,8.8,0.5,17.5,0.9,26c-1.9-8.2-3.9-16.6-6-25
				C-8.4,41-7.6,38.7-5.9,38.4z"/>
			<path class="st1" d="M-22.9,57.3c0.9-1,2.4-0.6,3.4,0.8c3.6,4.8,7,9.8,10.2,14.8c-4-4.2-8.3-8.2-12.8-11.9
				C-23.4,59.8-23.8,58.2-22.9,57.3z"/>
			<path class="st2" d="M-40,75c0.2-1.6,2.3-2.6,4.6-2.1c7.8,1.7,15.3,4.6,22.2,7.9c-7.2-1.7-14.9-2.9-22.9-3
				C-38.5,77.8-40.3,76.6-40,75z"/>
			<path class="st3" d="M30.4,62.1c0.5,1.1-0.5,2.5-2.1,3.3c-5.7,2.8-11,6.1-16,9.6c4.4-4.6,9.2-9,14.4-12.8
				C28.3,61.1,29.9,61.1,30.4,62.1z"/>
			<path class="st4" d="M22.1,37.7c1.9,1.1,1.9,3.7,0.2,5.9c-6,7.7-11.4,16.6-16,25.7c2.9-9.9,6.4-19.8,10.3-29
				C17.8,37.7,20.2,36.5,22.1,37.7z"/>
			<path class="st4" d="M-18.1,38.3c0.2,1-0.4,2-1.4,2.3c-0.9,0.3-1.8-0.2-2-1.2c-0.2-1,0.4-2,1.4-2.3
				C-19.1,36.8-18.2,37.4-18.1,38.3z"/>
			<path class="st1" d="M4.5,60.2c0.1,0.9-0.5,1.8-1.4,2c-0.8,0.1-1.6-0.5-1.7-1.4c-0.1-0.9,0.5-1.8,1.4-2
				C3.7,58.6,4.4,59.2,4.5,60.2z"/>
			<path class="st1" d="M4.4,79.9c0.1,0.9-0.5,1.8-1.4,2c-0.8,0.1-1.6-0.5-1.7-1.4c-0.1-0.9,0.5-1.8,1.4-2
				C3.6,78.3,4.3,78.9,4.4,79.9z"/>
			<path class="st3" d="M-18.6,85c0.3,0.9-0.1,1.7-0.8,1.9c-0.7,0.2-1.5-0.3-1.8-1.2c-0.3-0.8,0.1-1.7,0.8-1.9
				C-19.7,83.6-18.8,84.1-18.6,85z"/>
			<path class="st2" d="M25.8,73.2c-0.1,0.9-0.8,1.6-1.5,1.7c-0.8,0.1-1.3-0.6-1.2-1.4c0.1-0.9,0.8-1.7,1.5-1.7
				C25.4,71.7,25.9,72.4,25.8,73.2z"/>
			<path class="st1" d="M-14,47.8c0.1,0.7-0.3,1.4-1,1.6c-0.7,0.2-1.3-0.2-1.4-0.9c-0.1-0.7,0.3-1.4,1-1.6
				C-14.7,46.7-14.1,47.1-14,47.8z"/>
			<path class="st2" d="M3.3,34.1c0.1,0.7-0.4,1.4-1.2,1.4c-0.7,0.1-1.4-0.4-1.4-1.2c-0.1-0.7,0.4-1.4,1.2-1.4
				C2.5,32.9,3.2,33.4,3.3,34.1z"/>
			<path class="st5" d="M-14.1,72.6c0.2,0.7-0.2,1.4-0.8,1.5c-0.6,0.2-1.2-0.2-1.4-0.9c-0.2-0.7,0.2-1.4,0.8-1.5
				C-14.9,71.5-14.3,71.9-14.1,72.6z"/>
			<path class="st4" d="M-30,87.3c0.3,0.6,0,1.2-0.5,1.4c-0.5,0.2-1.2-0.1-1.5-0.7c-0.3-0.6,0-1.2,0.5-1.4
				C-30.9,86.4-30.2,86.7-30,87.3z"/>
			<path class="st2" d="M-27.7,66.8c0.2,0.6-0.2,1.4-0.8,1.6c-0.6,0.2-1.3-0.1-1.5-0.7c-0.2-0.6,0.2-1.4,0.8-1.6
				C-28.5,65.8-27.9,66.2-27.7,66.8z"/>
			<path class="st2" d="M10.7,80.5c0,0.7-0.4,1.3-0.9,1.4c-0.5,0.1-1-0.4-1-1.1c0-0.7,0.4-1.3,0.9-1.4
				C10.2,79.3,10.6,79.8,10.7,80.5z"/>
			<path class="st5" d="M7.3,43.4c0.1,0.9-0.6,1.7-1.4,1.8c-0.9,0.1-1.6-0.6-1.7-1.5c-0.1-0.9,0.6-1.7,1.4-1.8
				C6.5,41.8,7.2,42.5,7.3,43.4z"/>
			<path class="st1" d="M21.2,51.9c0.8-1.3,1.6-2.7,2.4-4c0.8,1.3,1.6,2.7,2.3,4C24.3,51.9,22.7,51.9,21.2,51.9z"/>
			<path class="st1" d="M-4.5,71.3c1.4,0.3,2.7,0.5,4.1,0.8c-0.9,1.2-1.8,2.5-2.7,3.7C-3.6,74.3-4,72.8-4.5,71.3z"/>
			<path class="st4" d="M-31.8,57.7c-1-1.1-2.1-2.1-3.1-3.1c1.6-0.6,3.1-1.3,4.7-1.8C-30.8,54.4-31.3,56-31.8,57.7z"/>
			<path class="st2" d="M-30.5,39c0.4,0.5,0.9,1,1.3,1.5c0.7-0.2,1.4-0.4,2.2-0.6c-0.4,0.7-0.8,1.4-1.2,2.1c0.3,0.7,0.5,1.3,0.8,2
				c-0.7-0.1-1.4-0.1-2.1-0.2c-0.5,0.6-1.1,1.2-1.6,1.8c0-0.7-0.1-1.5-0.1-2.2c-0.6-0.3-1.2-0.5-1.8-0.7c0.7-0.4,1.3-0.9,2-1.3
				C-30.9,40.6-30.7,39.8-30.5,39z"/>
			<path class="st5" d="M-5.8,78.9c0.4,0.5,0.9,1,1.3,1.5c0.7-0.2,1.4-0.4,2.2-0.6c-0.4,0.7-0.8,1.4-1.2,2.1c0.3,0.7,0.5,1.3,0.8,2
				c-0.7-0.1-1.4-0.1-2.1-0.2c-0.6,0.6-1.1,1.2-1.6,1.8c0-0.7-0.1-1.5-0.1-2.2c-0.6-0.3-1.2-0.5-1.8-0.7c0.7-0.4,1.3-0.9,2-1.3
				C-6.1,80.4-5.9,79.6-5.8,78.9z"/>
			<ellipse class="st6" cx="77.6" cy="101.1" rx="129.2" ry="129.7"/>
		</g>
		<g>
			<path class="st0" d="M47.5,121.8c-0.5,0.1-1.2-1.2-1.5-3c-0.9-6.2-1.7-12.6-2.2-19.2c1.5,6.3,2.9,12.6,4.1,18.8
				C48.3,120.2,48.1,121.7,47.5,121.8z"/>
			<path class="st1" d="M54.7,109.7c-0.5,0.6-1.1,0.2-1.4-1c-1.1-4-2.6-8.1-4.4-12.2c2.4,3.5,4.5,6.9,6,10.4
				C55.3,107.8,55.2,109.1,54.7,109.7z"/>
			<path class="st2" d="M66.6,98.9c-0.8,1.2-1.9,1.6-2.7,0.8c-2.9-2.9-6.7-6.1-11.3-9.3c5.1,1.9,9.6,3.8,13.5,5.4
				C67.1,96.3,67.3,97.7,66.6,98.9z"/>
			<path class="st3" d="M24.2,106c-0.8-0.7-0.9-1.8-0.2-2.6c2.5-2.6,5.4-5.5,8.7-8.5c-2.5,3.8-4.6,7.4-6.2,10.6
				C26,106.5,25,106.6,24.2,106z"/>
			<path class="st2" d="M38.2,122.5c-1-0.7-2.1-2.5-2.3-4.1c-0.6-5.8,0.3-12.3,2.2-19.4c-0.7,7.6-0.5,14.8,0.9,21.3
				C39.5,122.2,39.2,123.1,38.2,122.5z"/>
			<path class="st4" d="M51.4,123c0-0.7,0.2-1.4,0.5-1.5c0.3-0.1,0.5,0.4,0.5,1.1c0,0.7-0.2,1.4-0.5,1.5
				C51.6,124.2,51.4,123.7,51.4,123z"/>
			<path class="st1" d="M40.5,105.8c-0.2-0.7,0.1-1.4,0.6-1.5c0.5-0.1,1,0.4,1.2,1.1c0.1,0.7-0.1,1.4-0.6,1.5
				C41.2,107,40.7,106.5,40.5,105.8z"/>
			<path class="st3" d="M57.4,87.4c0-0.7,0.5-1.4,1.2-1.5c0.6-0.1,1.1,0.4,1,1.1c0,0.7-0.6,1.4-1.2,1.5
				C57.9,88.7,57.4,88.2,57.4,87.4z"/>
			<path class="st2" d="M22.3,97.6c-0.3-0.6-0.1-1.3,0.5-1.4c0.6-0.2,1.3,0.2,1.6,0.9c0.3,0.7,0.1,1.3-0.5,1.4
				C23.3,98.6,22.6,98.2,22.3,97.6z"/>
			<path class="st1" d="M50.3,115.7c0-0.5,0.2-1,0.4-1.1c0.3-0.1,0.5,0.3,0.5,0.8c0,0.5-0.2,1-0.4,1.1
				C50.6,116.6,50.3,116.2,50.3,115.7z"/>
			<path class="st2" d="M45.1,124.5c-0.1-0.5-0.1-0.9,0.1-1c0.2,0,0.5,0.3,0.6,0.8c0.1,0.5,0.1,0.9-0.1,1
				C45.5,125.3,45.2,125,45.1,124.5z"/>
			<path class="st5" d="M52,97c0-0.5,0.3-1.1,0.7-1.1c0.4-0.1,0.7,0.3,0.7,0.8c0,0.5-0.3,1.1-0.7,1.1C52.4,97.9,52,97.5,52,97z"/>
			<path class="st4" d="M66.4,87c0.1-0.5,0.5-1,1-1c0.5-0.1,0.7,0.3,0.6,0.8c-0.1,0.5-0.5,1-1,1C66.6,87.9,66.3,87.6,66.4,87z"/>
			<path class="st2" d="M58.5,103c0.1-0.5,0.4-1,0.7-1.1c0.4-0.1,0.6,0.3,0.5,0.8c-0.1,0.5-0.4,1-0.7,1.1
				C58.7,103.9,58.5,103.6,58.5,103z"/>
			<path class="st2" d="M32.9,90.6c-0.1-0.5,0.1-1.1,0.6-1.2c0.5-0.1,0.9,0.2,1.1,0.8c0.1,0.5-0.1,1.1-0.6,1.2
				C33.5,91.4,33.1,91.1,32.9,90.6z"/>
			<path class="st5" d="M41.9,118c-0.2-0.6-0.1-1.2,0.3-1.3c0.4-0.1,0.8,0.4,1,1c0.2,0.6,0.1,1.2-0.3,1.3
				C42.6,119.1,42.1,118.6,41.9,118z"/>
			<path class="st1" d="M33.4,112.4c0.1,1,0.2,2,0.3,3c-0.9-0.9-1.7-1.8-2.6-2.7C31.9,112.6,32.7,112.5,33.4,112.4z"/>
			<path class="st1" d="M45.6,97.5c-0.9-0.2-1.9-0.5-2.9-0.7c0.6-1,1.2-1.9,1.9-2.9C44.9,95.1,45.2,96.3,45.6,97.5z"/>
			<path class="st4" d="M58.2,110.8c0.1,1,0.2,2,0.3,3c-0.6,0.2-1.2,0.3-1.8,0.5C57.1,113.1,57.6,112,58.2,110.8z"/>
			<path class="st2" d="M54.5,124.5c0-0.4,0-0.9-0.1-1.3c-0.2,0-0.4,0-0.6,0c0.2-0.4,0.4-0.9,0.6-1.3c0-0.5,0-1,0-1.6
				c0.2,0.2,0.3,0.3,0.5,0.5c0.2-0.3,0.5-0.7,0.7-1c-0.1,0.6-0.2,1.1-0.3,1.7c0.1,0.3,0.2,0.6,0.3,0.9c-0.2,0.2-0.4,0.4-0.6,0.5
				C54.8,123.4,54.7,123.9,54.5,124.5z"/>
		</g>
	</g>
	<g>
		<g>
			<polygon class="st0" points="83,150.7 79.3,147.9 80.6,145.2 84.4,148 			"/>
		</g>
		<g>
			<polygon class="st3" points="80.1,172 64.8,160.9 74.1,142.6 89.4,153.7 			"/>
		</g>
		<g>
			<polygon class="st3" points="86.8,160.5 70.2,148.5 73.5,142.1 90,154.1 			"/>
		</g>
		<g>
			<polygon class="st7" points="85.9,160.5 70.6,149.4 70.9,148.9 86.1,160 			"/>
		</g>
		<g>
			<path class="st5" d="M70.8,142.9l-0.6-1.6c3.1-1.5,8.9,2.6,9.6,3.1l-0.8,1.5C77.4,144.7,72.8,141.9,70.8,142.9z"/>
		</g>
		<g>
			<polygon class="st7" points="80.1,172 64.8,160.9 65.1,160.4 80.4,171.5 			"/>
		</g>
		<g>
			<polygon class="st0" points="74.5,167.9 70.4,164.9 79.7,146.6 83.8,149.6 			"/>
		</g>
		<g>
			<path class="st0" d="M83.3,143.7c0,0-0.7-13.5-8.3-9.3c-2.5,1-2.5,4.1-2.2,4.4c0.3,0.3,0,2.8,6.9,7.9
				C83.8,149.6,83.3,143.7,83.3,143.7z"/>
		</g>
		<g>
			<path class="st5" d="M90.6,157.4c-0.2-2.3-3.8-5.8-6-7.4l0.8-1.5c0.7,0.5,6.4,4.8,6.7,8.8L90.6,157.4z"/>
		</g>
		<g>
			<path class="st5" d="M80.2,146.5c-3.6-2.6-5.6-4.8-6.1-6.6c0-0.1-0.1-0.3-0.1-0.4c0-0.4,0.2-1.5,1.3-2l0.1,0
				c1.5-0.8,2.6-0.9,3.5-0.2c2,1.5,2.7,6.3,2.8,8c0.1,0.8-0.1,1.6-0.2,1.9C81.3,147,80.9,146.9,80.2,146.5z"/>
		</g>
		<g>
			<path class="st0" d="M84.3,144.4c0,0,10.3-5.5,10.7,4.6c0.4,3.1-1.9,4.5-2.2,4.4c-0.3-0.2-2.1,1.3-9-3.7
				C79.7,146.6,84.3,144.4,84.3,144.4z"/>
		</g>
		<g>
			<path class="st5" d="M83.7,149c3.6,2.6,6.2,3.8,7.7,3.5c0.1,0,0.2,0,0.4,0c0.3-0.2,1-0.9,0.8-2.3l0-0.1c-0.1-1.9-0.6-3.2-1.4-3.8
				c-2-1.5-5.9,0-7.2,0.7c-0.6,0.3-1.2,0.8-1.3,1.1C82.7,148.1,83,148.5,83.7,149z"/>
		</g>
	</g>
	<g>
		<path class="st8" d="M128.8,166.9l-3.5-4.2l1.1-1.3l3.5,4.2c0.2,0.2,0.2,0.5,0,0.7l-0.5,0.6C129.2,167.1,128.9,167.1,128.8,166.9z
			"/>
		<path class="st9" d="M125.2,162.7l1.3,1.6c0.3,0,0.5-0.2,0.7-0.4c0.2-0.2,0.3-0.5,0.3-0.9l-1.3-1.6L125.2,162.7z"/>
		<path class="st10" d="M127.7,153.9c0,0,0,0,0.1,0c0,0,0.1,0,0.2-0.1c0.1-0.1,0.4-0.3,0.4-0.7c0-0.2-0.1-0.5-0.2-0.7
			c-0.1-0.2-0.3-0.4-0.6-0.4l-0.1,0h-0.1c-0.1,0-0.1,0-0.1,0c0,0-0.1,0-0.1,0c-0.1,0-0.3,0.1-0.4,0.2c-0.3,0.2-0.5,0.5-0.6,0.9
			c0,0.1,0,0.2-0.1,0.3l0,0.1l0,0.2c0,0.1,0,0.2,0,0.3c0,0.1,0,0.2,0.1,0.3c0.1,0.5,0.4,0.9,0.7,1.2c0.2,0.1,0.4,0.3,0.6,0.3
			c0.1,0,0.2,0.1,0.3,0.1l0.1,0l0,0c0,0,0,0,0,0h0h0l0.2,0c0.4,0,0.9-0.2,1.3-0.5c0.4-0.3,0.8-0.7,1-1.3c0.1-0.3,0.2-0.5,0.3-0.8
			c0-0.1,0-0.3,0.1-0.4l0-0.1l0,0c0,0,0,0,0,0l0,0l0-0.1c0-0.1,0-0.2,0-0.2c0-1.3-0.5-2.5-1.4-3.3c-0.4-0.4-0.9-0.7-1.4-0.9
			c-0.3-0.1-0.5-0.1-0.8-0.2l-0.2,0l-0.2,0c-0.1,0-0.3,0-0.4,0.1c-1,0.2-2,0.9-2.7,1.8c-0.7,0.9-1.2,2-1.4,3c0,0.1,0,0.1,0,0.2l0,0
			l0,0c0-0.1,0,0,0,0l0,0l0,0.1l0,0.2c0,0.1,0,0.2,0,0.2c0,0.2,0,0.5,0.1,0.8c0.1,0.5,0.2,1,0.3,1.4c0.3,0.9,0.8,1.6,1.3,2.2
			c0.6,0.6,1,1.2,1.4,1.7c0.8,0.9,1.3,1.5,1.3,1.5c0.4,0.5,0.4,1.3,0,1.8c-0.4,0.5-1,0.5-1.5,0c0,0,0,0,0,0c0,0-0.4-0.5-1.2-1.5
			c-0.4-0.5-0.9-1.1-1.4-1.7c-0.6-0.7-1.2-1.7-1.6-3c-0.2-0.6-0.3-1.3-0.4-2c0-0.4,0-0.7,0-1.1c0-0.1,0-0.2,0-0.3l0-0.2l0-0.1l0-0.1
			l0,0l0-0.1c0-0.1,0-0.2,0-0.3c0.2-1.6,1-3,1.9-4.1c1-1.1,2.2-2,3.7-2.3c0.2,0,0.4,0,0.6-0.1c0.1,0,0.2,0,0.3,0l0.3,0
			c0.4,0,0.7,0.1,1.1,0.3c0.7,0.3,1.4,0.7,1.9,1.3c1.1,1.2,1.8,2.9,1.8,4.7c0,0.8-0.2,1.8-0.5,2.5c-0.4,0.8-0.9,1.4-1.5,1.8
			c-0.6,0.4-1.3,0.6-2,0.6l-0.2,0l-0.1,0l-0.1,0l-0.1,0c-0.2,0-0.3-0.1-0.5-0.1c-0.3-0.1-0.6-0.3-0.9-0.6c-1.1-1-1.5-2.7-1.1-4.1
			c0.2-0.7,0.6-1.2,1.1-1.6c0.2-0.2,0.5-0.3,0.8-0.3c0.1,0,0.3,0,0.4,0l0.2,0l0.2,0c0.5,0.1,1,0.5,1.2,0.9c0.3,0.4,0.4,1,0.4,1.4
			c0,0.5-0.2,0.9-0.4,1.2c-0.2,0.3-0.4,0.4-0.6,0.5c-0.2,0.1-0.4,0.1-0.5,0.1c-0.1,0-0.1,0-0.1,0c-0.3,0-0.5-0.3-0.4-0.6
			C127.2,154.2,127.4,153.9,127.7,153.9L127.7,153.9z"/>
		<path class="st0" d="M125.3,161.5c-0.1,0.2-0.3,0.2-0.5,0c-0.1-0.2-0.1-0.4,0-0.5c0.1-0.2,0.3-0.2,0.5,0
			C125.4,161.1,125.4,161.3,125.3,161.5z"/>
		<path class="st0" d="M122.4,157.5c-0.1,0.2-0.3,0.2-0.5,0c-0.1-0.1-0.1-0.4,0-0.5c0.1-0.2,0.3-0.2,0.5,0
			C122.5,157.1,122.5,157.4,122.4,157.5z"/>
		<path class="st0" d="M121.9,152.7c-0.1,0.2-0.3,0.2-0.5,0c-0.1-0.2-0.1-0.4,0-0.5c0.1-0.2,0.3-0.2,0.5,0
			C122,152.3,122,152.5,121.9,152.7z"/>
		<path class="st0" d="M124.1,148.9c-0.1,0.2-0.3,0.2-0.5,0c-0.1-0.1-0.1-0.4,0-0.5c0.1-0.2,0.3-0.2,0.5,0
			C124.2,148.5,124.2,148.8,124.1,148.9z"/>
		<path class="st0" d="M128,147.9c-0.1,0.2-0.3,0.2-0.5,0c-0.1-0.1-0.1-0.4,0-0.5c0.1-0.2,0.3-0.2,0.5,0
			C128.2,147.5,128.2,147.8,128,147.9z"/>
		<path class="st0" d="M130.9,150.2c-0.1,0.2-0.3,0.2-0.5,0c-0.1-0.1-0.1-0.4,0-0.5c0.1-0.2,0.3-0.2,0.5,0
			C131,149.8,131,150,130.9,150.2z"/>
		<path class="st0" d="M131.5,154c-0.1,0.2-0.3,0.2-0.5,0c-0.1-0.2-0.1-0.4,0-0.5c0.1-0.2,0.3-0.2,0.5,0
			C131.6,153.6,131.6,153.8,131.5,154z"/>
		<path class="st0" d="M129.3,156.8c-0.1,0.2-0.3,0.2-0.5,0c-0.1-0.1-0.1-0.4,0-0.5c0.1-0.2,0.3-0.2,0.5,0
			C129.4,156.4,129.4,156.7,129.3,156.8z"/>
		<path class="st0" d="M126.3,156c-0.1,0.2-0.3,0.2-0.5,0c-0.1-0.1-0.1-0.4,0-0.5c0.1-0.2,0.3-0.2,0.5,0
			C126.5,155.6,126.5,155.8,126.3,156z"/>
		<path class="st0" d="M128,154.8c-0.1,0.2-0.3,0.2-0.5,0c-0.1-0.1-0.1-0.4,0-0.5c0.1-0.2,0.3-0.2,0.5,0
			C128.2,154.4,128.2,154.6,128,154.8z"/>
		<path class="st0" d="M127.3,151.9c-0.1,0.2-0.3,0.2-0.5,0c-0.1-0.1-0.1-0.4,0-0.5c0.1-0.2,0.3-0.2,0.5,0
			C127.4,151.5,127.4,151.7,127.3,151.9z"/>
		<path class="st7" d="M123.9,159.8c-0.1,0.2-0.3,0.2-0.5,0c-0.1-0.1-0.1-0.4,0-0.5c0.1-0.2,0.3-0.2,0.5,0
			C124,159.4,124,159.7,123.9,159.8z"/>
		<path class="st7" d="M121.8,155c-0.1,0.2-0.3,0.2-0.5,0c-0.1-0.2-0.1-0.4,0-0.5c0.1-0.2,0.3-0.2,0.5,0
			C121.9,154.6,121.9,154.8,121.8,155z"/>
		<path class="st7" d="M122.7,150.6c-0.1,0.2-0.3,0.2-0.5,0c-0.1-0.2-0.1-0.4,0-0.5c0.1-0.2,0.3-0.2,0.5,0
			C122.8,150.2,122.8,150.4,122.7,150.6z"/>
		<path class="st7" d="M125.9,147.9c-0.1,0.2-0.3,0.2-0.5,0c-0.1-0.2-0.1-0.4,0-0.5c0.1-0.2,0.3-0.2,0.5,0
			C126,147.5,126,147.7,125.9,147.9z"/>
		<path class="st7" d="M129.7,148.7c-0.1,0.2-0.3,0.2-0.5,0c-0.1-0.1-0.1-0.4,0-0.5c0.1-0.2,0.3-0.2,0.5,0
			C129.8,148.3,129.8,148.6,129.7,148.7z"/>
		<path class="st7" d="M131.5,152.1c-0.1,0.2-0.3,0.2-0.5,0c-0.1-0.1-0.1-0.4,0-0.5c0.1-0.2,0.3-0.2,0.5,0
			C131.7,151.7,131.7,152,131.5,152.1z"/>
		<path class="st7" d="M130.8,155.9c-0.1,0.2-0.3,0.2-0.5,0c-0.1-0.1-0.1-0.4,0-0.5c0.1-0.2,0.3-0.2,0.5,0
			C130.9,155.5,130.9,155.7,130.8,155.9z"/>
		<path class="st7" d="M127.8,157.2c-0.1,0.2-0.3,0.2-0.5,0c-0.1-0.1-0.1-0.4,0-0.5c0.1-0.2,0.3-0.2,0.5,0
			C127.9,156.8,127.9,157,127.8,157.2z"/>
		<path class="st7" d="M125.7,153.6c-0.1,0.2-0.3,0.2-0.5,0c-0.1-0.2-0.1-0.4,0-0.5c0.1-0.2,0.3-0.2,0.5,0
			C125.8,153.2,125.8,153.4,125.7,153.6z"/>
		<path class="st7" d="M129.1,153.5c-0.1,0.2-0.3,0.2-0.5,0c-0.1-0.1-0.1-0.4,0-0.5c0.1-0.2,0.3-0.2,0.5,0
			C129.2,153.1,129.2,153.4,129.1,153.5z"/>
	</g>
	<g>
		<g>
			<g>
				<polygon class="st0" points="101.3,141.9 98.6,139.2 100,137.1 102.8,139.8 				"/>
				<polygon class="st3" points="98.6,139.2 99.6,140.2 102.8,139.8 101.8,138.8 				"/>
			</g>
			<g>
				<polygon class="st0" points="104.1,144.6 101.3,141.9 102.8,139.8 105.5,142.5 				"/>
				<polygon class="st3" points="101.3,141.9 102.3,142.9 105.5,142.5 104.5,141.5 				"/>
			</g>
			<g>
				<polygon class="st0" points="106.8,147.3 104.1,144.6 105.5,142.5 108.3,145.2 				"/>
				<polygon class="st3" points="104.1,144.6 105.1,145.6 108.3,145.1 107.3,144.2 				"/>
			</g>
			<g>
				<path class="st0" d="M109,149.9c-0.1-0.3-0.3-0.5-0.5-0.8c-0.1-0.1-0.2-0.2-0.3-0.4c-0.1-0.1-0.2-0.2-0.3-0.3l0,0l0,0l-1.1-1.1
					l1.5-2.1l1.1,1c0,0,0,0,0,0c0.2,0.2,0.4,0.3,0.5,0.5c0.2,0.2,0.3,0.4,0.4,0.6c0.3,0.4,0.5,0.8,0.8,1.3L109,149.9z"/>
				<path class="st3" d="M106.8,147.3l1,1c0,0,0.7-0.1,0.9-0.1c0.2,0,0.5,0,0.7,0c0.5,0,1,0.2,1.6,0.4c0,0-0.2-0.4-0.4-0.8
					c-0.2-0.4-0.5-0.7-0.5-0.7C109.1,146.6,106.8,147.3,106.8,147.3z"/>
			</g>
			<g>
				<path class="st0" d="M109.2,152.8c0,0,0,0,0-0.1c0-0.1,0.1-0.2,0.1-0.3c0.1-0.3,0.1-0.7,0.1-1c0-0.4-0.1-0.7-0.2-1
					c-0.1-0.3-0.2-0.4-0.2-0.4l2-1.4c0,0,0,0.1,0.1,0.2c0.1,0.1,0.1,0.3,0.2,0.6c0.2,0.5,0.3,1.1,0.4,1.8c0,0.7,0,1.4-0.1,1.9
					c0,0.2-0.1,0.4-0.1,0.6c0,0.1-0.1,0.2-0.1,0.2L109.2,152.8z"/>
				<path class="st3" d="M109,149.9c0,0,0,0.1,0.1,0.2c0,0.1,0.1,0.2,0.1,0.4c0.1,0.3,0.1,0.5,0.1,0.5c0,0,0,0,0.1,0.1
					c0.1,0,0.2,0.1,0.3,0.2c0.2,0.2,0.5,0.5,0.8,0.8c0.1,0.2,0.2,0.4,0.4,0.6c0.1,0.2,0.2,0.4,0.3,0.6c0.1,0.4,0.2,0.6,0.2,0.6
					s0-0.1,0.1-0.3c0.1-0.2,0.1-0.4,0.1-0.6c0.1-0.5,0.1-1,0.1-1s0-0.1-0.1-0.2c-0.1-0.1-0.1-0.2-0.3-0.4c-0.2-0.3-0.5-0.6-0.9-0.9
					c-0.3-0.2-0.7-0.4-1-0.5C109.2,149.9,109,149.9,109,149.9z"/>
			</g>
			<g>
				<path class="st0" d="M107.5,155.6C107.5,155.6,107.5,155.5,107.5,155.6c0.1-0.1,0.2-0.2,0.3-0.3c0.2-0.2,0.4-0.5,0.7-0.9
					c0.2-0.4,0.4-0.7,0.5-1c0.1-0.1,0.1-0.3,0.1-0.3c0-0.1,0-0.1,0-0.1l2.2,1c0,0,0,0.1-0.1,0.2c0,0.1-0.1,0.3-0.2,0.5
					c-0.2,0.4-0.4,1-0.7,1.5c-0.3,0.5-0.7,1-0.9,1.3c-0.1,0.2-0.3,0.3-0.4,0.4c-0.1,0.1-0.1,0.1-0.1,0.1L107.5,155.6z"/>
				<path class="st3" d="M109.2,152.8c0,0,0,0.1-0.1,0.2c0,0.1-0.1,0.2-0.1,0.4c-0.1,0.1-0.1,0.3-0.2,0.4c0,0.1-0.1,0.2-0.1,0.2
					s0.1,0.2,0.1,0.5c0.1,0.3,0.1,0.8,0.2,1.3c0,0.1,0,0.2,0,0.4c0,0.1,0,0.2,0,0.4c0,0.2,0,0.5,0,0.6c0,0.2,0,0.4-0.1,0.5
					c0,0.1,0,0.2,0,0.2s0,0,0.1,0c0,0,0.1-0.1,0.1-0.1c0.1-0.1,0.3-0.3,0.4-0.4c0.1-0.2,0.3-0.3,0.4-0.5c0.1-0.1,0.2-0.2,0.2-0.2
					s0-0.1,0-0.2c0-0.1,0-0.3,0-0.5c0-0.4-0.1-0.9-0.2-1.3c-0.1-0.5-0.2-0.9-0.4-1.2C109.3,153,109.2,152.8,109.2,152.8z"/>
			</g>
			<g>
				<path class="st0" d="M105.2,156c0,0,0,0,0.1,0c0.1,0,0.2,0.1,0.3,0.1c0.2,0,0.5,0.1,0.8,0c0.3-0.1,0.6-0.2,0.8-0.3
					c0.1,0,0.1-0.1,0.1-0.1c0,0,0.1-0.1,0.1-0.1c0.1,0,0.1-0.1,0.1-0.1l1.4,2.2c0,0-0.1,0-0.2,0.1c-0.1,0-0.1,0.1-0.2,0.1
					c-0.1,0.1-0.2,0.1-0.3,0.2c-0.4,0.3-0.9,0.5-1.5,0.6c-0.6,0.1-1.2,0.1-1.6,0c-0.2,0-0.4-0.1-0.5-0.1c-0.1,0-0.2-0.1-0.2-0.1
					L105.2,156z"/>
				<path class="st3" d="M107.5,155.6c0,0,0,0-0.1,0.1c-0.1,0.1-0.2,0.1-0.3,0.2c-0.1,0.1-0.2,0.1-0.3,0.2c-0.1,0-0.1,0.1-0.1,0.1
					s0,0.1,0,0.1c0,0.1-0.1,0.2-0.1,0.4c-0.1,0.2-0.1,0.3-0.2,0.5c-0.1,0.2-0.2,0.4-0.4,0.5c-0.3,0.3-0.6,0.6-0.9,0.8
					c-0.3,0.2-0.5,0.3-0.5,0.3c0,0,0.4,0.2,0.8,0.2c0.4,0.1,0.8,0.1,0.8,0.1s0,0,0.1-0.1c0.1-0.1,0.2-0.2,0.3-0.3
					c0.1-0.1,0.1-0.2,0.2-0.2c0.1-0.1,0.1-0.2,0.2-0.3c0.1-0.2,0.2-0.4,0.3-0.6c0.1-0.2,0.1-0.5,0.2-0.6c0-0.2,0.1-0.4,0.1-0.6
					C107.5,155.8,107.5,155.6,107.5,155.6z"/>
			</g>
			<g>
				<path class="st0" d="M102.8,154.1c0-0.1,0.5,0.7,1.1,1.2c0.3,0.3,0.6,0.5,0.9,0.6c0.1,0.1,0.2,0.1,0.3,0.1c0.1,0,0.1,0,0.1,0
					l-0.7,2.6c0,0-0.1,0-0.2-0.1c-0.1,0-0.3-0.1-0.5-0.2c-0.4-0.2-0.8-0.5-1.2-0.9c-0.8-0.7-1.5-1.6-1.5-1.6L102.8,154.1z"/>
				<path class="st3" d="M105.2,156c0,0-0.2-0.1-0.5-0.2c-0.2-0.1-0.5-0.3-0.5-0.3s-0.2,0.1-0.4,0.2c-0.3,0.1-0.7,0.2-1.1,0.2
					c-0.8,0.1-1.7,0-1.7,0c0,0,0.3,0.4,0.5,0.7c0.3,0.3,0.6,0.6,0.6,0.6s0.2,0,0.5-0.1c0.3,0,0.7-0.1,1.1-0.3c0.4-0.1,0.7-0.3,1-0.5
					c0.1-0.1,0.2-0.2,0.3-0.2C105.1,156,105.2,156,105.2,156z"/>
			</g>
		</g>
		<path class="st0" d="M102.8,154.1c0,0-0.7-0.7-1.5,0.2c-0.6,0.6-0.3,1.5-0.2,1.6C101.1,156,102.8,154.1,102.8,154.1z"/>
	</g>
	<g>
		<g>
			<rect x="104.1" y="83.4" class="st11" width="0.6" height="7.7"/>
			<rect x="104.7" y="83.4" class="st12" width="0.6" height="7.7"/>
		</g>
		<polygon class="st13" points="107.2,91.9 102.1,91.9 103.4,91.1 105.9,91.1 		"/>
		<rect x="113.9" y="83.4" class="st12" width="0.9" height="7.7"/>
		<polygon class="st13" points="116.3,91.9 112.4,91.9 113.4,91.1 115.3,91.1 		"/>
		<g>
			<path class="st11" d="M100.8,75.2c-0.3,1-0.5,2.1-0.5,3.2c0,4,2,7.2,4.4,7.2V75.2H100.8z"/>
			<path class="st12" d="M108.6,75.2h-3.9v10.4l0,0c2.4,0,4.4-3.2,4.4-7.2C109,77.2,108.9,76.1,108.6,75.2z"/>
		</g>
		<g>
			<path class="st12" d="M117.4,69.2h-3v14.5l0,0c1.8,0,3.3-4.5,3.3-10C117.7,72.1,117.6,70.5,117.4,69.2z"/>
			<path class="st11" d="M111.4,69.2c-0.2,1.4-0.4,2.9-0.4,4.5c0,5.5,1.5,10,3.3,10V69.2H111.4z"/>
		</g>
		<g>
			<path class="st0" d="M101.1,80.6c0.5,2.5,1.9,4.3,3.6,4.3c1.7,0,3.1-1.8,3.6-4.3H101.1z"/>
		</g>
		<rect x="101.1" y="80.2" class="st5" width="7.2" height="0.4"/>
		<rect x="111.5" y="73.6" class="st14" width="5.9" height="0.4"/>
		<g>
			<path class="st1" d="M111.5,74c0,5.5,1.6,9.2,2.9,9.2c1.4,0,2.9-3.8,2.9-9.2H111.5z"/>
		</g>
	</g>
	<g>
		<g>
			<g>
				<path class="st1" d="M95.6,71.4c0,2.2-1.5,3.9-3.3,3.9c-1.8,0-3.3-1.7-3.3-3.9c0-2.2,1.5-3.9,3.3-3.9
					C94.1,67.5,95.6,69.3,95.6,71.4z"/>
				<path class="st3" d="M92.3,74.5c-1.4,0-2.5-1.4-2.5-3.1c0-1.7,1.1-3.1,2.5-3.1c1.4,0,2.5,1.4,2.5,3.1
					C94.9,73.1,93.7,74.5,92.3,74.5z"/>
				<path class="st1" d="M92.7,69.7c0,0.3-0.2,0.5-0.4,0.5c-0.2,0-0.4-0.2-0.4-0.5c0-0.3,0.2-0.5,0.4-0.5
					C92.5,69.2,92.7,69.4,92.7,69.7z"/>
				<path class="st1" d="M91.2,70.1c0.2,0.1,0.3,0.4,0.2,0.7C91.3,71,91,71.1,90.8,71c-0.2-0.1-0.3-0.4-0.2-0.7
					C90.8,70.1,91,70,91.2,70.1z"/>
				<path class="st1" d="M90.8,71.9c0.2-0.1,0.5-0.1,0.6,0.2c0.1,0.2,0,0.5-0.2,0.7c-0.2,0.1-0.5,0.1-0.6-0.2
					C90.6,72.3,90.6,72,90.8,71.9z"/>
				<path class="st1" d="M91.9,73.2c0-0.3,0.2-0.5,0.4-0.5c0.2,0,0.4,0.2,0.4,0.5s-0.2,0.5-0.4,0.5C92.1,73.7,91.9,73.5,91.9,73.2z"
					/>
				<path class="st1" d="M93.4,72.8c-0.2-0.1-0.3-0.4-0.2-0.7c0.1-0.2,0.4-0.3,0.6-0.2c0.2,0.1,0.3,0.4,0.2,0.7
					C93.8,72.8,93.6,72.9,93.4,72.8z"/>
				<path class="st1" d="M93.8,71c-0.2,0.1-0.5,0.1-0.6-0.2c-0.1-0.2,0-0.5,0.2-0.7c0.2-0.1,0.5-0.1,0.6,0.2
					C94,70.5,94,70.9,93.8,71z"/>
			</g>
			<rect x="83.8" y="82" class="st12" width="1.1" height="9.6"/>
			<path class="st15" d="M89.1,72.4c0.2,1,0.7,1.8,1.4,2.3l2.3-3.3c0,0-0.1,0-0.5,0C91.3,72.1,90.3,72.3,89.1,72.4z"/>
			<polygon class="st16" points="86.8,92.5 82,92.5 83.6,91.6 85.2,91.6 			"/>
			<g>
				<polygon class="st11" points="76.5,71.4 84.4,82.8 84.4,71.4 				"/>
				<polygon class="st12" points="84.4,71.4 84.4,82.8 92.3,71.4 				"/>
			</g>
			<polygon class="st1" points="84.4,81.3 85,80.7 76.4,67.1 75.8,67.6 			"/>
			<g>
				<polygon class="st4" points="89.7,74.2 79.1,74.2 84.4,81.8 				"/>
			</g>
			<polygon class="st17" points="84.4,81.3 85,80.7 80.9,74.2 79.9,74.2 			"/>
		</g>
		<polygon class="st17" points="79.1,74.2 78.8,73.7 90,73.7 89.7,74.2 		"/>
	</g>
	<g>
		<polygon class="st0" points="50.7,150.5 46.8,145.9 40.1,154.1 44,158.7 		"/>
		<g>
			<polygon class="st18" points="44.7,148.4 45.6,147.3 45.7,156.6 44.8,157.7 			"/>
			<polygon class="st18" points="46.7,146 46.8,145.9 47.6,146.9 47.7,154.2 46.8,155.3 			"/>
			<polygon class="st18" points="49.7,149.3 49.7,151.8 48.8,152.9 48.7,148.2 			"/>
			<polygon class="st18" points="42.7,150.9 43.6,149.8 43.7,158.4 42.8,157.3 			"/>
			<polygon class="st18" points="40.8,153.3 41.7,152.2 41.7,156 40.8,154.9 			"/>
		</g>
		<polygon class="st19" points="42.3,156.7 41.8,156.2 40.6,157.6 41.1,158.2 		"/>
		<g>
			<path class="st7" d="M37.8,161.7c0,0-0.1-2.1,0.9-3.3c0.8-1,1.9-1.5,2.5-1.3c-0.2,0.1-0.5,0.3-0.8,0.6c-0.4,0.5-0.4,1.4-0.4,1.4
				s0.8,0.1,1.2-0.5c0.3-0.3,0.4-0.7,0.5-1c0.2,0.7-0.2,2-1,3C39.5,161.8,37.8,161.7,37.8,161.7z"/>
			<path class="st20" d="M40.5,157.1c0,0-1.3,0.9-1.6,3.3c0,0,1.8-0.4,2.6-2.2C41.8,156.4,40.5,157.1,40.5,157.1z"/>
		</g>
		<polygon class="st10" points="55.8,156.4 51.8,151.8 47.6,157.1 51.5,161.7 		"/>
		<polygon class="st19" points="49.8,159.6 49.3,159.1 48.1,160.6 48.6,161.1 		"/>
		<g>
			<path class="st7" d="M45.8,164c0,0-0.1-1.8,0.7-2.9c0.7-0.9,1.6-1.3,2.1-1.1c-0.2,0-0.5,0.2-0.7,0.5c-0.4,0.5-0.3,1.2-0.3,1.2
				s0.7,0,1-0.4c0.2-0.3,0.4-0.6,0.4-0.8c0.2,0.6-0.2,1.7-0.9,2.6C47.3,164.1,45.8,164,45.8,164z"/>
			<path class="st20" d="M48.1,160.1c0,0-1.1,0.8-1.4,2.8c0,0,1.6-0.4,2.2-1.9C49.3,159.5,48.1,160.1,48.1,160.1z"/>
		</g>
		<polygon class="st21" points="50.7,150.5 46.8,145.9 46.3,146.5 50.2,151.1 		"/>
		<polygon class="st21" points="55.8,156.4 51.8,151.8 51.4,152.4 55.3,157 		"/>
		<g>
			<path class="st3" d="M48.9,157.1c-0.3,0.4-0.3,1.1,0,1.5c0.3,0.4,0.9,0.4,1.2,0c0.3-0.4,0.3-1.1,0-1.5
				C49.8,156.7,49.3,156.7,48.9,157.1z"/>
			<path class="st3" d="M51.6,156.5c0.2,0.2,0.5,0.2,0.7,0c0.2-0.2,0.2-0.6,0-0.8c-0.2-0.2-0.5-0.2-0.7,0
				C51.4,155.9,51.4,156.3,51.6,156.5z"/>
			<path class="st3" d="M52.5,159.1c0.2-0.3,0.2-0.8,0-1.1c-0.2-0.3-0.6-0.3-0.9,0c-0.2,0.3-0.2,0.8,0,1.1
				C51.8,159.4,52.2,159.4,52.5,159.1z"/>
			<path class="st3" d="M52.8,153.3c-0.2-0.3-0.6-0.3-0.9,0c-0.2,0.3-0.2,0.8,0,1.1c0.2,0.3,0.6,0.3,0.9,0
				C53.1,154.1,53.1,153.6,52.8,153.3z"/>
			<path class="st3" d="M50.9,153.8c0.2-0.2,0.2-0.6,0-0.8l-0.7,0.9C50.4,154,50.7,154,50.9,153.8z"/>
			<path class="st3" d="M49.8,156c0.2,0.3,0.6,0.3,0.9,0c0.2-0.3,0.2-0.8,0-1.1c-0.2-0.3-0.6-0.3-0.9,0
				C49.6,155.2,49.6,155.7,49.8,156z"/>
			<path class="st3" d="M48.7,155.7l-0.7,0.9c0.2,0.2,0.5,0.2,0.7,0C48.9,156.3,48.9,156,48.7,155.7z"/>
			<path class="st3" d="M51.5,161.1c0.2-0.2,0.2-0.6,0-0.8c-0.2-0.2-0.5-0.2-0.7,0c-0.1,0.1-0.1,0.3-0.1,0.5l0.5,0.6
				C51.3,161.3,51.4,161.2,51.5,161.1z"/>
			<path class="st3" d="M54.9,157.5c0-0.3-0.1-0.6-0.3-0.9c-0.3-0.4-0.9-0.4-1.2,0c-0.3,0.4-0.3,1.1,0,1.5c0.2,0.2,0.5,0.3,0.7,0.3
				L54.9,157.5z"/>
		</g>
	</g>
	<g>
		
			<linearGradient id="SVGID_1_" gradientUnits="userSpaceOnUse" x1="426.2232" y1="178.065" x2="448.7461" y2="178.065" gradientTransform="matrix(-1 0 0 -1 448.7461 302.71)">
			<stop  offset="0" style="stop-color:#4DA3BE"/>
			<stop  offset="1" style="stop-color:#99DEFF"/>
		</linearGradient>
		<polygon class="st22" points="21.6,138.7 13.6,138.7 0,118.3 22.5,110.6 		"/>
		<polygon class="st23" points="14.9,137.8 20,137.5 15.3,114.4 2.6,120.4 		"/>
		<polygon class="st24" points="15.2,137.3 18.8,137 14.2,116.7 3.8,120.8 		"/>
		
			<linearGradient id="SVGID_2_" gradientUnits="userSpaceOnUse" x1="429.1201" y1="176.044" x2="444.2286" y2="176.044" gradientTransform="matrix(-1 0 0 -1 448.7461 302.71)">
			<stop  offset="0" style="stop-color:#01244F"/>
			<stop  offset="1" style="stop-color:#047DB0"/>
		</linearGradient>
		<polygon class="st25" points="19.6,136.6 15.5,137 4.5,120.9 17,116.4 		"/>
		<polygon class="st23" points="17.6,138.7 19.4,138.7 14,113.5 11.7,114.3 		"/>
		<polygon class="st24" points="18.4,138.7 19,138.7 14,113.5 12.7,114 		"/>
		
			<linearGradient id="SVGID_3_" gradientUnits="userSpaceOnUse" x1="389.9103" y1="175.8475" x2="436.1056" y2="175.8475" gradientTransform="matrix(-1 0 0 -1 448.7461 302.71)">
			<stop  offset="0" style="stop-color:#4DA3BE"/>
			<stop  offset="1" style="stop-color:#99DEFF"/>
		</linearGradient>
		<polygon class="st26" points="58.8,151.4 21.8,147.9 12.6,107.4 49.2,102.3 		"/>
		<polygon class="st23" points="13.5,110.9 12.8,107.9 34.9,108.9 33.5,113.9 		"/>
		<polygon class="st23" points="55.3,149.7 21.5,146.6 20.9,143.7 54,145.7 		"/>
		<polygon class="st24" points="13.4,110.6 13,109.1 33.4,110.6 33.1,112.4 		"/>
		<polygon class="st24" points="51.8,148.7 21.3,145.5 21,144.3 50,146.6 		"/>
		
			<linearGradient id="SVGID_4_" gradientUnits="userSpaceOnUse" x1="394.4243" y1="173.6748" x2="436.4468" y2="173.6748" gradientTransform="matrix(-1 0 0 -1 448.7461 302.71)">
			<stop  offset="0" style="stop-color:#01244F"/>
			<stop  offset="1" style="stop-color:#047DB0"/>
		</linearGradient>
		<polygon class="st27" points="54.3,148.2 20.2,144.6 12.3,109.9 43.6,112.2 		"/>
		<g>
			<g>
				<polygon class="st28" points="19.5,120.3 35.7,115.4 22.4,125.7 				"/>
				<polygon class="st29" points="25.3,131.1 22.4,125.7 35.7,115.4 35.8,115.4 				"/>
			</g>
			<path class="st2" d="M18.8,123.5l-12.4,1.4c-0.2,0-0.4-0.2-0.4-0.4c0-0.3,0.1-0.5,0.4-0.5c0,0,0,0,0,0L18.8,123.5z"/>
			<path class="st1" d="M20.9,126.8l-7.3,5.3c-0.2,0.1-0.4,0.1-0.6-0.2c-0.1-0.2-0.1-0.5,0.1-0.7c0,0,0,0,0,0L20.9,126.8z"/>
			<path class="st30" d="M21.8,129.2l-7.7,15.2c-0.1,0.2-0.4,0.3-0.6,0.2c-0.2-0.1-0.3-0.4-0.1-0.7c0,0,0,0,0,0L21.8,129.2z"/>
			<path class="st4" d="M23.3,131.3l-0.6,4.8c0,0.3-0.2,0.5-0.5,0.4c-0.2,0-0.4-0.3-0.3-0.6c0,0,0-0.1,0-0.1L23.3,131.3z"/>
			<path class="st3" d="M17.9,120.8l-5.2-3.1c-0.2-0.1-0.3-0.4-0.2-0.7c0.1-0.2,0.4-0.3,0.6-0.2c0,0,0,0,0,0L17.9,120.8z"/>
			<polygon class="st3" points="7.7,130.5 8.4,129.7 9.4,129.9 8.9,128.9 9.4,127.8 8.4,128 7.8,127.2 7.6,128.3 6.7,128.8 
				7.6,129.4 			"/>
			<polygon class="st2" points="19.2,143.5 19.1,142.7 19.5,142.2 18.9,142.1 18.6,141.5 18.4,142.2 17.8,142.3 18.2,142.8 
				18.1,143.5 18.7,143.1 			"/>
			<polygon class="st4" points="6.7,120.6 6.9,119.7 7.6,119.4 7,118.9 7,118 6.4,118.6 5.7,118.3 5.9,119.1 5.5,119.9 6.2,119.8 
							"/>
			<polygon class="st2" points="18.4,132.5 18.3,131.8 18.7,131.3 18.1,131.2 17.8,130.6 17.6,131.2 17,131.4 17.4,131.9 
				17.4,132.6 17.9,132.2 			"/>
			<path class="st2" d="M15.6,137.3c0.4-0.3,0.5-1,0.3-1.5c-0.3-0.5-0.8-0.7-1.3-0.3c-0.4,0.3-0.5,1-0.3,1.5
				C14.6,137.5,15.1,137.7,15.6,137.3z"/>
			<path class="st30" d="M10,120.9c0.3-0.2,0.4-0.7,0.2-1.1c-0.2-0.4-0.6-0.5-0.9-0.2c-0.3,0.2-0.4,0.7-0.2,1.1
				C9.3,121,9.7,121.1,10,120.9z"/>
			<path class="st30" d="M20.2,125.4c0.3-0.2,0.4-0.7,0.2-1.1c-0.2-0.4-0.6-0.5-0.9-0.2c-0.3,0.2-0.4,0.7-0.2,1.1
				C19.5,125.6,19.9,125.7,20.2,125.4z"/>
			<path class="st1" d="M21.2,139.4c0.3-0.2,0.4-0.7,0.2-1.1c-0.2-0.4-0.6-0.5-0.9-0.2c-0.3,0.2-0.4,0.7-0.2,1.1
				C20.5,139.5,20.9,139.6,21.2,139.4z"/>
			<path class="st2" d="M18.4,118.3c0.3-0.2,0.4-0.7,0.2-1.1c-0.2-0.4-0.6-0.5-0.9-0.2c-0.3,0.2-0.4,0.7-0.2,1.1
				C17.7,118.4,18.1,118.5,18.4,118.3z"/>
			<path class="st4" d="M10.1,135.1c0.3-0.2,0.4-0.7,0.2-1.1c-0.2-0.4-0.6-0.5-0.9-0.2c-0.3,0.2-0.4,0.7-0.2,1.1
				C9.4,135.2,9.8,135.3,10.1,135.1z"/>
			<g>
				<polygon class="st11" points="21.9,119.6 23,119.2 21.9,124.9 21.2,123.4 				"/>
				<polygon class="st11" points="25.4,130.9 25.3,131.1 24.6,129.8 26.7,118.1 27.8,117.8 				"/>
				<polygon class="st11" points="23.6,128.1 22.9,126.6 24.3,118.8 25.4,118.5 				"/>
				<polygon class="st11" points="31.7,121.4 30.3,123.5 31.6,116.7 32.7,116.3 				"/>
				<polygon class="st11" points="28.6,126.1 27.2,128.3 29.1,117.4 30.2,117.1 				"/>
				<polygon class="st11" points="34.9,116.7 33.5,118.8 34,115.9 35.1,115.6 				"/>
			</g>
		</g>
		<polygon class="st23" points="30,138.4 29.2,141 58.8,151.4 36.3,104.1 33.9,104.4 23,136.9 		"/>
		<polygon class="st24" points="30.9,138.3 30.2,140.8 58.8,151.4 37.3,103.9 34.9,104.3 24.1,136.8 		"/>
		
			<linearGradient id="SVGID_5_" gradientUnits="userSpaceOnUse" x1="389.9103" y1="158.3871" x2="418.1118" y2="158.3871" gradientTransform="matrix(-1 0 0 -1 448.7461 302.71)">
			<stop  offset="0" style="stop-color:#0AB3D5"/>
			<stop  offset="1" style="stop-color:#396B94"/>
		</linearGradient>
		<polygon class="st31" points="30.6,140.8 58.8,151.4 56,137.2 		"/>
		<polygon class="st23" points="56.9,141.5 36.3,142.9 30.6,140.8 56.3,138.3 		"/>
		<polygon class="st24" points="30.6,140.8 32.5,141.5 56.6,139.9 56.3,138.7 		"/>
		
			<linearGradient id="SVGID_6_" gradientUnits="userSpaceOnUse" x1="271.0898" y1="162.0511" x2="300.5075" y2="162.0511" gradientTransform="matrix(-1 0 0 -1 448.7461 302.71)">
			<stop  offset="0" style="stop-color:#99DEFF"/>
			<stop  offset="1" style="stop-color:#4DA3BE"/>
		</linearGradient>
		<polygon class="st32" points="148.2,151 177.7,157.2 174.8,136 158.6,124.1 		"/>
		<polygon class="st23" points="151,149.5 172.8,152.5 171.6,140 164.1,133.2 		"/>
		<polygon class="st24" points="152.5,148.9 171.7,151.9 170.4,140.9 164.2,135.4 		"/>
		
			<linearGradient id="SVGID_7_" gradientUnits="userSpaceOnUse" x1="277.5811" y1="159.6638" x2="298.3646" y2="159.6638" gradientTransform="matrix(-1 0 0 -1 448.7461 302.71)">
			<stop  offset="0" style="stop-color:#047DB0"/>
			<stop  offset="1" style="stop-color:#01244F"/>
		</linearGradient>
		<polygon class="st33" points="150.4,148.3 171.2,151.5 170,141.3 163.3,134.6 		"/>
		<polygon class="st23" points="148.2,151 163.1,145.5 163.5,142.1 164.7,141.3 166.3,129.8 164.1,128.2 		"/>
		<polygon class="st24" points="162.5,145.3 162.9,142.1 164.2,141.2 165.7,129.3 164.6,128.5 148.2,151 		"/>
		
			<linearGradient id="SVGID_8_" gradientUnits="userSpaceOnUse" x1="286.4879" y1="155.5614" x2="300.5075" y2="155.5614" gradientTransform="matrix(-1 0 0 -1 448.7461 302.71)">
			<stop  offset="0" style="stop-color:#396B94"/>
			<stop  offset="1" style="stop-color:#0AB3D5"/>
		</linearGradient>
		<polygon class="st34" points="162.3,145.2 148.2,151 151.2,143.3 		"/>
		<polygon class="st23" points="150.1,146.1 150.8,144.4 162.3,145.2 159.7,146.2 		"/>
		<polygon class="st24" points="161.5,145.5 150.6,145 150.8,144.4 162.3,145.2 		"/>
		
			<linearGradient id="SVGID_9_" gradientUnits="userSpaceOnUse" x1="285.0974" y1="161.1333" x2="287.0333" y2="161.1333" gradientTransform="matrix(-1 0 0 -1 448.7461 302.71)">
			<stop  offset="0" style="stop-color:#004796"/>
			<stop  offset="1" style="stop-color:#002E4A"/>
		</linearGradient>
		<polygon class="st35" points="163.6,141.3 161.7,142.6 162,140.6 		"/>
		
			<linearGradient id="SVGID_10_" gradientUnits="userSpaceOnUse" x1="281.6617" y1="180.6656" x2="315.906" y2="180.6656" gradientTransform="matrix(-1 0 0 -1 448.7461 302.71)">
			<stop  offset="0" style="stop-color:#99DEFF"/>
			<stop  offset="1" style="stop-color:#4DA3BE"/>
		</linearGradient>
		<polygon class="st36" points="136.1,98.9 167.1,107.4 162.3,145.2 132.8,143.7 		"/>
		<polygon class="st23" points="147.3,106.7 166.1,114.8 166.5,111.9 147.3,103.3 		"/>
		<polygon class="st24" points="166.2,114.1 166.3,113.2 147.7,105.1 147.7,106.5 		"/>
		<path class="st23" d="M134.7,142.2l27.8,0.5l0.1-0.7l1-0.6l-9.6-0.8c0,0-18.3-0.5-18.3-0.4C135.7,140.3,134.7,142.2,134.7,142.2z"
			/>
		<polygon class="st24" points="135.9,141.4 163,141.8 163.6,141.3 136.2,140.9 		"/>
		
			<linearGradient id="SVGID_11_" gradientUnits="userSpaceOnUse" x1="281.567" y1="180.3386" x2="314.6498" y2="180.3386" gradientTransform="matrix(-1 0 0 -1 448.7461 302.71)">
			<stop  offset="0" style="stop-color:#047DB0"/>
			<stop  offset="1" style="stop-color:#01244F"/>
		</linearGradient>
		<polygon class="st37" points="134.1,141 163.6,141.3 167.2,114.2 142,103.4 		"/>
		<polygon class="st23" points="150.2,132.3 149.1,126.2 152.3,123.7 148.4,102.3 146.5,101.8 132.8,143.7 		"/>
		<polygon class="st24" points="149.3,132.2 148.3,126.4 151.5,123.8 147.7,102.1 146.5,101.8 132.8,143.7 		"/>
		
			<linearGradient id="SVGID_12_" gradientUnits="userSpaceOnUse" x1="299.8179" y1="164.7444" x2="315.906" y2="164.7444" gradientTransform="matrix(-1 0 0 -1 448.7461 302.71)">
			<stop  offset="0" style="stop-color:#396B94"/>
			<stop  offset="1" style="stop-color:#0AB3D5"/>
		</linearGradient>
		<polygon class="st38" points="148.9,132.2 132.8,143.7 133.6,132.7 		"/>
		<polygon class="st23" points="148.9,132.2 146.9,133.6 133.5,134.8 133.6,133.1 		"/>
		<polygon class="st24" points="148.2,132.7 133.5,133.8 133.6,132.7 148.9,132.2 		"/>
		
			<linearGradient id="SVGID_13_" gradientUnits="userSpaceOnUse" x1="297.5198" y1="177.9806" x2="302.6921" y2="177.9806" gradientTransform="matrix(-1 0 0 -1 448.7461 302.71)">
			<stop  offset="0" style="stop-color:#004796"/>
			<stop  offset="1" style="stop-color:#002E4A"/>
		</linearGradient>
		<polygon class="st39" points="151.2,123.9 146.5,127.6 146.1,121.9 		"/>
		
			<linearGradient id="SVGID_14_" gradientUnits="userSpaceOnUse" x1="413.3251" y1="166.7436" x2="424.2614" y2="166.7436" gradientTransform="matrix(-1 0 0 -1 448.7461 302.71)">
			<stop  offset="0" style="stop-color:#004796"/>
			<stop  offset="1" style="stop-color:#002E4A"/>
		</linearGradient>
		<polygon class="st40" points="24.5,136.7 32.3,138.4 35.4,133.5 		"/>
		
			<linearGradient id="SVGID_15_" gradientUnits="userSpaceOnUse" x1="299.8179" y1="186.4807" x2="418.1118" y2="186.4807" gradientTransform="matrix(-1 0 0 -1 448.7461 302.71)">
			<stop  offset="0" style="stop-color:#5CC7E8"/>
			<stop  offset="0.5273" style="stop-color:#8AE0F0"/>
			<stop  offset="0.9939" style="stop-color:#5CC7E8"/>
		</linearGradient>
		<polygon class="st41" points="45.5,92.1 142.6,91.7 148.9,132.2 30.6,140.8 		"/>
		<polygon class="st23" points="151.2,123.9 148.8,125.8 30.2,137.9 24.5,136.7 		"/>
		<polygon class="st24" points="150.2,124.7 27.1,137.3 24.5,136.7 151.2,123.9 		"/>
		<polygon class="st23" points="44.1,96.7 44.9,94.1 143.4,96.8 143.9,100.2 		"/>
		<polygon class="st24" points="143.8,99.8 143.6,98.1 44.6,95.1 44.1,96.7 		"/>
		
			<linearGradient id="SVGID_16_" gradientUnits="userSpaceOnUse" x1="297.5198" y1="186.5981" x2="424.2614" y2="186.5981" gradientTransform="matrix(-1 0 0 -1 448.7461 302.71)">
			<stop  offset="0" style="stop-color:#176EA6"/>
			<stop  offset="0.9939" style="stop-color:#00B0D1"/>
		</linearGradient>
		<polygon class="st42" points="24.5,136.7 151.2,123.9 146.9,99.2 38.4,95.5 		"/>
	</g>
	<g>
		<g>
			<path class="st5" d="M149.3,40.4c1.4,0.1,2.3,1.7,2,3.5c-0.8,6.5-1.6,12.9-2.3,19.2c-0.5-6.4-1.2-12.8-1.8-19.4
				C147,41.9,147.9,40.4,149.3,40.4z"/>
			<path class="st1" d="M133.9,51.4c0.8-0.6,1.9,0,2.6,1.1c2.2,4.2,4.4,8.4,6.3,12.6c-2.7-3.7-5.6-7.4-8.6-11
				C133.2,53.2,133.1,51.9,133.9,51.4z"/>
			<path class="st2" d="M118.5,61.4c0.4-1.1,2.1-1.5,3.8-0.8c5.9,2.6,11.4,6,16.4,9.7c-5.4-2.5-11.3-4.7-17.5-6.1
				C119.4,63.7,118.2,62.6,118.5,61.4z"/>
			<path class="st3" d="M174.9,64.1c0.3,0.9-0.7,1.7-2,2.1c-4.7,1.1-9.3,2.6-13.5,4.3c3.9-2.6,8.2-5,12.7-6.9
				C173.3,63,174.6,63.3,174.9,64.1z"/>
			<path class="st4" d="M171.1,44.7c1.3,1.2,1.1,3.1-0.5,4.4c-5.5,4.6-10.8,10.2-15.3,16.2c3.4-6.8,7.2-13.4,11.3-19.5
				C167.8,44,169.8,43.6,171.1,44.7z"/>
			<path class="st4" d="M139.8,38.3c0,0.7-0.6,1.4-1.3,1.4c-0.8,0.1-1.4-0.5-1.4-1.2c0-0.7,0.6-1.4,1.3-1.5
				C139.1,37,139.8,37.6,139.8,38.3z"/>
			<path class="st1" d="M154.9,58.2c0,0.7-0.6,1.2-1.3,1.2c-0.7,0-1.2-0.6-1.2-1.4c0-0.7,0.6-1.3,1.3-1.2
				C154.4,56.9,155,57.5,154.9,58.2z"/>
			<path class="st1" d="M152.6,72.7c0,0.7-0.6,1.2-1.3,1.2c-0.7,0-1.2-0.6-1.2-1.4c0-0.7,0.6-1.3,1.3-1.2
				C152.1,71.3,152.7,72,152.6,72.7z"/>
			<path class="st3" d="M134.1,72.5c0.1,0.7-0.3,1.3-0.8,1.3c-0.6,0-1.2-0.5-1.3-1.2c-0.1-0.7,0.2-1.2,0.9-1.3
				C133.4,71.3,134,71.8,134.1,72.5z"/>
			<path class="st2" d="M170.1,71.5c-0.2,0.6-0.8,1.1-1.4,1c-0.6-0.1-0.9-0.6-0.8-1.3c0.2-0.6,0.8-1.1,1.4-1
				C169.9,70.3,170.2,70.9,170.1,71.5z"/>
			<path class="st1" d="M141.9,46c0,0.5-0.4,1-1,1c-0.5,0-1-0.4-1-0.9c0-0.5,0.4-1,1-1C141.4,45,141.9,45.4,141.9,46z"/>
			<path class="st2" d="M156.9,38.9c0,0.5-0.5,0.9-1.1,0.8c-0.6-0.1-1-0.6-1-1.1c0-0.5,0.5-0.9,1.1-0.9
				C156.5,37.8,156.9,38.3,156.9,38.9z"/>
			<path class="st5" d="M139,64.1c0,0.5-0.3,1-0.8,1c-0.5,0-0.9-0.4-1-0.9c-0.1-0.5,0.3-1,0.8-1C138.5,63.2,139,63.6,139,64.1z"/>
			<path class="st4" d="M125,72.2c0.1,0.5-0.1,0.9-0.5,0.9c-0.4,0-0.9-0.3-1.1-0.8c-0.1-0.5,0.1-0.9,0.6-0.9
				C124.4,71.4,124.9,71.7,125,72.2z"/>
			<path class="st2" d="M129.1,57.6c0.1,0.5-0.3,1-0.8,1c-0.5,0.1-1-0.3-1.1-0.8c-0.1-0.5,0.3-1,0.8-1.1
				C128.5,56.7,129,57.1,129.1,57.6z"/>
			<path class="st2" d="M157.4,74.2c-0.1,0.5-0.5,0.9-0.9,0.9c-0.4,0-0.7-0.4-0.7-0.9c0.1-0.5,0.4-0.9,0.9-0.9
				C157.2,73.3,157.5,73.7,157.4,74.2z"/>
			<path class="st5" d="M159,46.4c0,0.7-0.6,1.1-1.3,1c-0.7-0.1-1.2-0.7-1.2-1.4c0-0.7,0.6-1.2,1.3-1.1
				C158.5,45.1,159,45.7,159,46.4z"/>
			<path class="st1" d="M168.8,55c0.8-0.9,1.5-1.7,2.3-2.5c0.5,1.1,0.9,2.2,1.3,3.3C171.3,55.6,170,55.3,168.8,55z"/>
			<path class="st1" d="M146.6,64.8c1,0.4,2.1,0.9,3.1,1.3c-0.9,0.8-1.7,1.5-2.5,2.3C147,67.2,146.8,66,146.6,64.8z"/>
			<path class="st4" d="M126.9,50.1c-0.7-1-1.4-1.9-2.1-2.8c1.3-0.2,2.6-0.4,3.8-0.5C128,47.9,127.5,49,126.9,50.1z"/>
			<path class="st2" d="M130,36.7c0.3,0.4,0.6,0.9,0.9,1.3c0.6,0,1.2,0,1.8-0.1c-0.4,0.5-0.8,0.9-1.2,1.4c0.1,0.5,0.3,1,0.4,1.6
				c-0.5-0.2-1.1-0.3-1.6-0.5c-0.5,0.3-1,0.7-1.5,1.1c0.1-0.6,0.1-1.1,0.2-1.7c-0.4-0.3-0.9-0.6-1.4-0.9c0.6-0.2,1.1-0.4,1.7-0.6
				C129.5,37.8,129.8,37.2,130,36.7z"/>
			<path class="st5" d="M144.8,70.2c0.3,0.4,0.6,0.9,0.9,1.3c0.6,0,1.2,0,1.8-0.1c-0.4,0.5-0.8,0.9-1.2,1.4c0.1,0.5,0.3,1,0.4,1.6
				c-0.5-0.2-1.1-0.3-1.6-0.5c-0.5,0.3-1,0.7-1.5,1.1c0.1-0.6,0.1-1.1,0.2-1.7c-0.4-0.3-0.9-0.6-1.3-0.9c0.6-0.2,1.2-0.4,1.7-0.6
				C144.4,71.3,144.6,70.7,144.8,70.2z"/>
		</g>
		<g>
			<path class="st5" d="M147.5,104.9c-0.5,0-0.9-1.4-0.9-3.1c0-5.9,0.3-11.9,0.7-18c0.5,6.1,0.9,12.1,1.1,18
				C148.4,103.6,148,104.9,147.5,104.9z"/>
			<path class="st1" d="M155.7,95.3c-0.5,0.5-1-0.1-1.1-1.2c-0.4-3.9-1.2-8-2.3-12.1c1.7,3.7,3.1,7.2,4,10.7
				C156.5,93.7,156.3,94.8,155.7,95.3z"/>
			<path class="st2" d="M168.1,87.8c-0.9,1-2,1.1-2.6,0.1c-2.2-3.2-5.3-6.9-9-10.7c4.4,2.7,8.3,5.4,11.5,7.7
				C169,85.6,169,86.8,168.1,87.8z"/>
			<path class="st3" d="M128.3,85.7c-0.7-0.8-0.6-1.8,0.2-2.4c2.7-1.9,5.7-3.9,9.1-6c-2.8,3-5.2,5.8-7.2,8.5
				C129.9,86.6,129,86.5,128.3,85.7z"/>
			<path class="st4" d="M138.9,103.6c-0.8-0.8-1.6-2.7-1.5-4.2c0.3-5.4,2-11.2,4.7-17.3c-1.7,6.8-2.5,13.4-2.1,19.7
				C140.1,103.7,139.7,104.4,138.9,103.6z"/>
			<path class="st4" d="M150.9,106.7c0.1-0.6,0.4-1.2,0.7-1.2c0.3,0,0.4,0.5,0.3,1.1c-0.1,0.6-0.4,1.2-0.7,1.2
				C150.9,107.9,150.8,107.4,150.9,106.7z"/>
			<path class="st1" d="M143.3,88.9c-0.1-0.7,0.3-1.2,0.7-1.2c0.5,0,0.9,0.6,0.9,1.2c0,0.7-0.3,1.2-0.7,1.2
				C143.8,90.1,143.4,89.6,143.3,88.9z"/>
			<path class="st3" d="M161.4,75.5c0.1-0.7,0.7-1.2,1.3-1.1c0.6,0,0.9,0.6,0.8,1.3c-0.1,0.7-0.7,1.2-1.3,1.1
				C161.6,76.7,161.2,76.2,161.4,75.5z"/>
			<path class="st2" d="M127.8,77.6c-0.2-0.6,0.1-1.2,0.7-1.2c0.6,0,1.2,0.5,1.3,1.1c0.2,0.7-0.1,1.2-0.7,1.2
				C128.6,78.8,128,78.3,127.8,77.6z"/>
			<path class="st1" d="M150.9,99.9c0-0.5,0.3-0.9,0.6-0.9c0.3,0,0.4,0.4,0.4,0.9c-0.1,0.5-0.3,0.9-0.6,0.9
				C151,100.8,150.8,100.4,150.9,99.9z"/>
			<path class="st2" d="M144.9,106.9c-0.1-0.5,0-0.9,0.3-0.9c0.2,0,0.4,0.4,0.5,0.9c0,0.5-0.1,0.9-0.3,0.9
				C145.1,107.7,144.9,107.3,144.9,106.9z"/>
			<path class="st5" d="M155.1,83.1c0.1-0.5,0.4-0.9,0.8-0.9c0.4,0,0.6,0.4,0.6,0.9c-0.1,0.5-0.4,0.9-0.8,0.9
				C155.3,84,155,83.6,155.1,83.1z"/>
			<path class="st4" d="M169.6,76.9c0.1-0.5,0.6-0.8,1-0.8c0.4,0,0.6,0.4,0.5,0.9c-0.2,0.4-0.6,0.8-1,0.8
				C169.7,77.8,169.5,77.4,169.6,76.9z"/>
			<path class="st2" d="M160.2,90c0.1-0.5,0.5-0.9,0.8-0.9c0.3,0,0.5,0.4,0.4,0.8c-0.1,0.5-0.5,0.9-0.8,0.9
				C160.2,90.8,160.1,90.5,160.2,90z"/>
			<path class="st2" d="M138.5,73.4c-0.1-0.5,0.2-0.9,0.7-1c0.4,0,0.8,0.4,0.9,0.9c0,0.5-0.3,0.9-0.7,0.9
				C139,74.3,138.6,73.9,138.5,73.4z"/>
			<path class="st5" d="M142.9,100.3c-0.1-0.6,0.1-1.1,0.4-1.1c0.3,0,0.7,0.5,0.7,1.2c0.1,0.6-0.1,1.1-0.4,1.1
				C143.3,101.4,143,100.9,142.9,100.3z"/>
			<path class="st1" d="M135.9,93.5c-0.1,0.9-0.1,1.9-0.1,2.8c-0.7-1-1.3-2-2-3C134.5,93.4,135.2,93.4,135.9,93.5z"/>
			<path class="st1" d="M149.1,82.3c-0.8-0.4-1.7-0.8-2.5-1.2c0.7-0.8,1.4-1.5,2.1-2.3C148.8,80,149,81.1,149.1,82.3z"/>
			<path class="st4" d="M158.8,97c0,0.9-0.1,1.9-0.2,2.8c-0.6,0-1.1,0-1.7,0.1C157.5,98.9,158.1,98,158.8,97z"/>
			<path class="st2" d="M153.5,108.7c0-0.4,0.1-0.8,0.1-1.2c-0.2,0-0.3-0.1-0.5-0.1c0.2-0.4,0.5-0.7,0.7-1.1
				c0.1-0.5,0.2-0.9,0.3-1.4c0.1,0.2,0.3,0.4,0.4,0.6c0.3-0.3,0.5-0.5,0.8-0.8c-0.2,0.5-0.4,1-0.5,1.5c0,0.3,0.1,0.6,0.1,0.9
				c-0.2,0.1-0.4,0.2-0.6,0.4C153.9,107.8,153.7,108.3,153.5,108.7z"/>
		</g>
	</g>
	
		<radialGradient id="SVGID_17_" cx="233.9498" cy="158222.8906" r="146.8656" gradientTransform="matrix(0.1186 5.369288e-02 -7.883383e-03 2.509623e-02 1350.1525 -3886.5173)" gradientUnits="userSpaceOnUse">
		<stop  offset="0" style="stop-color:#8A8A8A"/>
		<stop  offset="0.1531" style="stop-color:#A5A5A5"/>
		<stop  offset="0.4081" style="stop-color:#CCCCCC"/>
		<stop  offset="0.6428" style="stop-color:#E8E8E8"/>
		<stop  offset="0.8476" style="stop-color:#F9F9F9"/>
		<stop  offset="1" style="stop-color:#FFFFFF"/>
	</radialGradient>
	<path class="st43" d="M148,104.8c-0.7,2.1-9,0.3-18.7-4c-9.7-4.4-16.9-9.6-16.3-11.8c0.7-2.1,9-0.3,18.7,4
		C141.4,97.3,148.7,102.6,148,104.8z"/>
	
		<radialGradient id="SVGID_18_" cx="322.0336" cy="158236.0625" r="146.8721" gradientTransform="matrix(0.1186 5.369288e-02 -7.883383e-03 2.509623e-02 1350.1525 -3886.5173)" gradientUnits="userSpaceOnUse">
		<stop  offset="0" style="stop-color:#8A8A8A"/>
		<stop  offset="0.1531" style="stop-color:#A5A5A5"/>
		<stop  offset="0.4081" style="stop-color:#CCCCCC"/>
		<stop  offset="0.6428" style="stop-color:#E8E8E8"/>
		<stop  offset="0.8476" style="stop-color:#F9F9F9"/>
		<stop  offset="1" style="stop-color:#FFFFFF"/>
	</radialGradient>
	<path class="st44" d="M158.4,109.8c-0.7,2.1-9,0.3-18.7-4c-9.7-4.4-16.9-9.6-16.3-11.8c0.7-2.1,9-0.3,18.7,4
		C151.8,102.4,159.1,107.7,158.4,109.8z"/>
	<g>
		<g>
			<path class="st5" d="M107.9,17.4c1,0,1.7,1.2,1.5,2.6c-0.6,4.8-1.2,9.5-1.7,14.2c-0.4-4.7-0.8-9.5-1.4-14.3
				C106.2,18.5,106.9,17.3,107.9,17.4z"/>
			<path class="st1" d="M96.5,25.5c0.6-0.4,1.4,0,1.9,0.8c1.7,3.1,3.2,6.2,4.6,9.3c-2-2.8-4.1-5.5-6.4-8.1
				C96.1,26.8,96,25.9,96.5,25.5z"/>
			<path class="st2" d="M85.2,32.9c0.3-0.8,1.5-1.1,2.8-0.6c4.4,1.9,8.4,4.4,12.1,7.1c-4-1.8-8.3-3.4-12.9-4.5
				C85.9,34.6,85,33.7,85.2,32.9z"/>
			<path class="st3" d="M126.8,34.9c0.2,0.6-0.5,1.3-1.5,1.5c-3.5,0.8-6.8,1.9-10,3.2c2.9-1.9,6-3.7,9.4-5.1
				C125.6,34,126.6,34.2,126.8,34.9z"/>
			<path class="st4" d="M124,20.5c1,0.9,0.8,2.3-0.4,3.2c-4.1,3.4-7.9,7.6-11.3,11.9c2.5-5,5.3-9.9,8.3-14.4
				C121.5,20,123.1,19.7,124,20.5z"/>
			<path class="st4" d="M100.9,15.8c0,0.5-0.4,1-1,1.1c-0.6,0-1-0.3-1.1-0.9c0-0.5,0.4-1,1-1.1C100.4,14.9,100.9,15.3,100.9,15.8z"
				/>
			<path class="st1" d="M112.1,30.5c0,0.5-0.5,0.9-1,0.9c-0.5,0-0.9-0.5-0.9-1c0-0.5,0.4-0.9,1-0.9C111.7,29.5,112.1,30,112.1,30.5z
				"/>
			<path class="st1" d="M110.4,41.2c0,0.5-0.5,0.9-1,0.9c-0.5,0-0.9-0.5-0.9-1c0-0.5,0.4-0.9,1-0.9C110,40.2,110.4,40.6,110.4,41.2z
				"/>
			<path class="st3" d="M96.7,41c0.1,0.5-0.2,0.9-0.6,0.9c-0.4,0-0.9-0.4-1-0.9c-0.1-0.5,0.2-0.9,0.6-0.9
				C96.2,40.1,96.6,40.5,96.7,41z"/>
			<path class="st2" d="M123.2,40.3c-0.1,0.5-0.6,0.8-1,0.7c-0.4,0-0.7-0.5-0.6-0.9c0.1-0.5,0.6-0.8,1-0.8
				C123.1,39.4,123.4,39.8,123.2,40.3z"/>
			<path class="st1" d="M102.5,21.5c0,0.4-0.3,0.7-0.7,0.8c-0.4,0-0.7-0.3-0.8-0.7c0-0.4,0.3-0.7,0.7-0.8
				C102.1,20.8,102.4,21.1,102.5,21.5z"/>
			<path class="st2" d="M113.5,16.2c0,0.4-0.4,0.7-0.8,0.6c-0.4-0.1-0.7-0.4-0.7-0.8c0-0.4,0.4-0.7,0.8-0.6
				C113.2,15.5,113.5,15.8,113.5,16.2z"/>
			<path class="st5" d="M100.3,34.9c0,0.4-0.2,0.7-0.6,0.7c-0.4,0-0.7-0.3-0.7-0.7c0-0.4,0.2-0.7,0.6-0.7
				C100,34.2,100.3,34.5,100.3,34.9z"/>
			<path class="st4" d="M90,40.8c0.1,0.4-0.1,0.7-0.4,0.7c-0.3,0-0.7-0.2-0.8-0.6c-0.1-0.3,0.1-0.7,0.4-0.7
				C89.5,40.2,89.9,40.5,90,40.8z"/>
			<path class="st2" d="M93,30c0.1,0.4-0.2,0.7-0.6,0.8c-0.4,0.1-0.7-0.2-0.8-0.6c-0.1-0.4,0.2-0.7,0.6-0.8C92.6,29.4,93,29.7,93,30
				z"/>
			<path class="st2" d="M113.9,42.3c0,0.4-0.3,0.7-0.7,0.7c-0.3,0-0.5-0.3-0.5-0.7c0-0.4,0.3-0.7,0.6-0.7
				C113.7,41.6,113.9,41.9,113.9,42.3z"/>
			<path class="st5" d="M115.1,21.8c0,0.5-0.5,0.8-1,0.8c-0.5-0.1-0.9-0.5-0.9-1c0-0.5,0.5-0.9,1-0.8
				C114.7,20.8,115.1,21.3,115.1,21.8z"/>
			<path class="st1" d="M122.3,28.2c0.6-0.6,1.1-1.2,1.7-1.9c0.3,0.8,0.7,1.7,1,2.5C124.1,28.5,123.2,28.3,122.3,28.2z"/>
			<path class="st1" d="M105.9,35.4c0.8,0.3,1.5,0.6,2.3,1c-0.6,0.6-1.2,1.1-1.8,1.7C106.2,37.2,106.1,36.3,105.9,35.4z"/>
			<path class="st4" d="M91.4,24.5c-0.5-0.7-1-1.4-1.5-2.1c0.9-0.2,1.9-0.3,2.8-0.4C92.2,22.9,91.8,23.7,91.4,24.5z"/>
			<path class="st2" d="M93.7,14.6c0.2,0.3,0.4,0.6,0.7,1c0.4,0,0.9,0,1.3,0c-0.3,0.3-0.6,0.7-0.9,1c0.1,0.4,0.2,0.8,0.3,1.2
				c-0.4-0.1-0.8-0.2-1.2-0.4c-0.4,0.3-0.7,0.5-1.1,0.8c0-0.4,0.1-0.8,0.1-1.2c-0.3-0.2-0.7-0.4-1-0.6c0.4-0.2,0.8-0.3,1.3-0.4
				C93.3,15.4,93.5,15,93.7,14.6z"/>
			<path class="st5" d="M104.6,39.3c0.2,0.3,0.4,0.6,0.7,1c0.4,0,0.9,0,1.3,0c-0.3,0.3-0.6,0.7-0.9,1c0.1,0.4,0.2,0.8,0.3,1.2
				c-0.4-0.1-0.8-0.2-1.2-0.4c-0.4,0.3-0.7,0.5-1.1,0.8c0-0.4,0.1-0.8,0.1-1.2c-0.3-0.2-0.7-0.4-1-0.6c0.4-0.2,0.8-0.3,1.3-0.4
				C104.3,40.1,104.4,39.7,104.6,39.3z"/>
		</g>
		<g>
			<path class="st5" d="M106.6,65c-0.4,0-0.7-1-0.7-2.3c0-4.3,0.2-8.8,0.5-13.3c0.4,4.5,0.7,8.9,0.8,13.3C107.2,64,107,65,106.6,65z
				"/>
			<path class="st1" d="M112.7,57.9c-0.4,0.3-0.7-0.1-0.8-0.9c-0.3-2.9-0.9-5.9-1.7-8.9c1.3,2.7,2.3,5.3,3,7.9
				C113.3,56.7,113.1,57.5,112.7,57.9z"/>
			<path class="st2" d="M121.8,52.3c-0.6,0.7-1.5,0.8-1.9,0.1c-1.6-2.4-3.9-5.1-6.6-7.9c3.3,2,6.1,4,8.5,5.7
				C122.4,50.7,122.4,51.6,121.8,52.3z"/>
			<path class="st3" d="M92.5,50.8C92,50.2,92,49.4,92.6,49c2-1.4,4.2-2.9,6.7-4.4c-2.1,2.2-3.9,4.3-5.3,6.3
				C93.6,51.4,92.9,51.4,92.5,50.8z"/>
			<path class="st4" d="M100.2,64c-0.6-0.6-1.2-2-1.1-3.1c0.2-4,1.5-8.3,3.5-12.8c-1.2,5-1.8,9.9-1.6,14.5
				C101.1,64,100.8,64.6,100.2,64z"/>
			<path class="st4" d="M109.1,66.3c0.1-0.5,0.3-0.9,0.5-0.9c0.2,0,0.3,0.3,0.2,0.8c-0.1,0.5-0.3,0.9-0.5,0.9
				C109.1,67.2,109,66.8,109.1,66.3z"/>
			<path class="st1" d="M103.5,53.1c0-0.5,0.2-0.9,0.5-0.9c0.3,0,0.6,0.4,0.7,0.9c0,0.5-0.2,0.9-0.5,0.9
				C103.9,54,103.6,53.6,103.5,53.1z"/>
			<path class="st3" d="M116.8,43.3c0.1-0.5,0.5-0.9,0.9-0.8c0.4,0,0.7,0.4,0.6,0.9c-0.1,0.5-0.5,0.9-0.9,0.8
				C117,44.2,116.7,43.7,116.8,43.3z"/>
			<path class="st2" d="M92,44.8c-0.1-0.5,0.1-0.9,0.5-0.9c0.4,0,0.9,0.4,1,0.8c0.1,0.5-0.1,0.9-0.5,0.9
				C92.6,45.7,92.2,45.3,92,44.8z"/>
			<path class="st1" d="M109.1,61.2c0-0.4,0.2-0.7,0.4-0.7c0.2,0,0.3,0.3,0.3,0.6c0,0.4-0.2,0.7-0.4,0.7
				C109.2,61.9,109,61.6,109.1,61.2z"/>
			<path class="st2" d="M104.6,66.4c0-0.4,0-0.6,0.2-0.6c0.2,0,0.3,0.3,0.3,0.7c0,0.4,0,0.6-0.2,0.6C104.8,67,104.7,66.7,104.6,66.4
				z"/>
			<path class="st5" d="M112.2,48.9c0-0.4,0.3-0.7,0.6-0.7c0.3,0,0.5,0.3,0.4,0.7c-0.1,0.4-0.3,0.7-0.6,0.7
				C112.3,49.6,112.1,49.3,112.2,48.9z"/>
			<path class="st4" d="M122.9,44.3c0.1-0.3,0.5-0.6,0.8-0.6c0.3,0,0.5,0.3,0.4,0.7c-0.1,0.3-0.5,0.6-0.8,0.6
				C123,44.9,122.8,44.7,122.9,44.3z"/>
			<path class="st2" d="M115.9,53.9c0.1-0.4,0.4-0.6,0.6-0.7c0.2,0,0.4,0.3,0.3,0.6c-0.1,0.3-0.4,0.6-0.6,0.7
				C116,54.6,115.9,54.3,115.9,53.9z"/>
			<path class="st2" d="M100,41.7c0-0.4,0.2-0.7,0.5-0.7c0.3,0,0.6,0.3,0.6,0.7c0,0.4-0.2,0.7-0.5,0.7C100.3,42.4,100,42.1,100,41.7
				z"/>
			<path class="st5" d="M103.2,61.5c-0.1-0.5,0.1-0.8,0.3-0.8c0.2,0,0.5,0.4,0.5,0.8c0.1,0.5-0.1,0.8-0.3,0.8
				C103.5,62.4,103.3,62,103.2,61.5z"/>
			<path class="st1" d="M98,56.5c0,0.7-0.1,1.4-0.1,2.1c-0.5-0.7-1-1.5-1.5-2.2C97,56.4,97.5,56.5,98,56.5z"/>
			<path class="st1" d="M107.8,48.3c-0.6-0.3-1.2-0.6-1.9-0.9c0.5-0.6,1-1.1,1.6-1.7C107.6,46.5,107.7,47.4,107.8,48.3z"/>
			<path class="st4" d="M114.9,59.1c0,0.7-0.1,1.4-0.1,2.1c-0.4,0-0.8,0-1.2,0C114,60.5,114.4,59.8,114.9,59.1z"/>
			<path class="st2" d="M111,67.8c0-0.3,0.1-0.6,0.1-0.9c-0.1,0-0.3,0-0.4-0.1c0.2-0.3,0.3-0.5,0.5-0.8c0.1-0.3,0.1-0.7,0.2-1.1
				c0.1,0.1,0.2,0.3,0.3,0.4c0.2-0.2,0.4-0.4,0.6-0.6c-0.1,0.4-0.3,0.7-0.4,1.1c0,0.2,0.1,0.4,0.1,0.7c-0.2,0.1-0.3,0.2-0.5,0.3
				C111.3,67.1,111.2,67.4,111,67.8z"/>
		</g>
	</g>
	<g>
		<g>
			<polygon class="st4" points="125.9,90.4 139.8,96.4 151,59.2 			"/>
			<polygon class="st10" points="151,59.2 139.8,96.4 153.6,102.5 			"/>
		</g>
		<path class="st45" d="M153.2,60.2c-0.5,1.5-1.9,2.3-3.1,1.8c-1.3-0.6-1.9-2.2-1.5-3.8c0.5-1.5,1.9-2.3,3.1-1.8
			C153.1,57,153.7,58.7,153.2,60.2z"/>
		<path class="st1" d="M151.8,56.5c-1.2-0.5-2.5,0.2-3,1.5c-0.3,1.4,0.3,3,1.5,3.5c1.2,0.5,2.5-0.2,3-1.5
			C153.6,58.5,153,57,151.8,56.5z"/>
		<g>
			<path class="st3" d="M146.8,95.2c0.8,0.4,1.7-0.2,2-1.1c0.3-1-0.1-2.1-0.9-2.4c-0.8-0.4-1.7,0.2-2,1.1
				C145.6,93.8,146,94.9,146.8,95.2z"/>
			<path class="st3" d="M150.7,83.6c0.4-1.5-0.2-3.1-1.4-3.7c-1.2-0.5-2.6,0.2-3.1,1.7c-0.4,1.5,0.2,3.1,1.4,3.7
				C148.9,85.9,150.2,85.1,150.7,83.6z"/>
			<path class="st3" d="M151.4,69.9c-0.8-0.4-1.7,0.2-2,1.1c-0.3,1,0.1,2.1,0.9,2.4c0.5,0.2,1.1,0.1,1.5-0.3l-0.2-3.1
				C151.6,70,151.5,69.9,151.4,69.9z"/>
			<polygon class="st3" points="152.1,88.8 150.4,88.4 151.2,90.2 150.3,92 152,91.7 153.1,93.1 152.7,88.1 			"/>
			<path class="st3" d="M153.1,100c0.1,0.1,0.3,0.1,0.4,0.1l-0.2-2.6c-0.4,0-0.8,0.4-0.9,0.8C152.2,99,152.5,99.8,153.1,100z"/>
			<polygon class="st3" points="141.7,95.6 141.5,93.6 140.3,95 138.7,94.6 139.3,96.3 139.8,96.4 141.8,97.3 143.2,96.6 			"/>
			<polygon class="st3" points="143,83 142.8,81 141.6,82.4 139.9,82 140.7,83.8 139.8,85.5 141.5,85.2 142.6,86.7 142.9,84.7 
				144.4,83.9 			"/>
			<polygon class="st3" points="141.4,73.4 141.7,71.4 143.2,70.6 142.3,70 140.5,72.2 			"/>
			<path class="st3" d="M137,79.7c0.8,0.4,1.7-0.2,2-1.1c0.3-1-0.1-2.1-0.9-2.4c-0.2-0.1-0.5-0.1-0.7-0.1l-1.4,1.8
				C136,78.7,136.3,79.4,137,79.7z"/>
			<path class="st3" d="M129,89.9c1.2,0.5,2.6-0.2,3.1-1.7c0.4-1.5-0.2-3.1-1.4-3.7l-3,3.8C127.8,89,128.3,89.6,129,89.9z"/>
			<path class="st3" d="M137.7,89.2c-0.2,0.7,0.1,1.4,0.6,1.6c0.6,0.2,1.2-0.1,1.4-0.8c0.2-0.7-0.1-1.4-0.6-1.6
				C138.5,88.2,137.9,88.6,137.7,89.2z"/>
			<path class="st3" d="M145.8,67.2c0.6,0.2,1.2-0.1,1.4-0.8c0.2-0.7-0.1-1.4-0.6-1.6c0,0,0,0,0,0l-1.3,1.7
				C145.2,66.8,145.5,67.1,145.8,67.2z"/>
			<path class="st3" d="M145.1,73.1c-0.6-0.2-1.2,0.1-1.4,0.8c-0.2,0.7,0.1,1.4,0.6,1.6c0.6,0.2,1.2-0.1,1.4-0.8
				C146,74,145.7,73.3,145.1,73.1z"/>
		</g>
		<g>
			<path class="st3" d="M154.4,105.2c0.4-1.2-0.1-2.4-1.7-3.1l-25.9-11.2c-1.7-0.7-2.6-0.1-3,1.1c0,0,0,0.1,0,0.1l30.6,13.3
				C154.4,105.3,154.4,105.2,154.4,105.2z"/>
			<path class="st5" d="M123.8,92c-0.3,1.1,0.1,2.3,1.7,3l25.9,11.2c1.6,0.7,2.6,0.1,2.9-1L123.8,92z"/>
		</g>
		<g>
			<polygon class="st46" points="126.7,89.3 125.9,90.4 139.8,96.4 153.6,102.5 153.5,101 			"/>
		</g>
	</g>
	<g>
		<g>
			<polygon class="st28" points="71.6,27 84.8,55.7 65.7,34.8 			"/>
			<polygon class="st29" points="59.8,42.5 65.7,34.8 84.8,55.7 84.9,55.8 			"/>
		</g>
		<path class="st2" d="M67.1,27L60,4.1c-0.1-0.4,0-0.9,0.4-1c0.3-0.2,0.7,0.1,0.9,0.5c0,0,0,0,0,0.1L67.1,27z"/>
		<path class="st1" d="M63.6,32.4l-10-11.7c-0.3-0.3-0.3-0.8,0-1.1c0.3-0.3,0.7-0.3,1,0c0,0,0,0,0,0.1L63.6,32.4z"/>
		<path class="st30" d="M60.8,35.2L37.5,27c-0.4-0.1-0.6-0.6-0.5-1c0.1-0.4,0.5-0.7,0.8-0.5c0,0,0,0,0,0L60.8,35.2z"/>
		<path class="st4" d="M58.7,39l-6.5,0.9c-0.4,0.1-0.7-0.3-0.7-0.7c0-0.4,0.2-0.8,0.6-0.9c0,0,0.1,0,0.1,0L58.7,39z"/>
		<path class="st3" d="M70.3,24.1l2-11.1c0.1-0.4,0.4-0.7,0.8-0.6c0.4,0.1,0.6,0.5,0.5,1c0,0,0,0.1,0,0.1L70.3,24.1z"/>
		<polygon class="st3" points="53.2,9.1 54.6,10 54.7,11.9 55.9,10.6 57.4,11.1 56.8,9.3 57.6,7.7 56,7.9 55,6.5 54.7,8.3 		"/>
		<polygon class="st2" points="41,36.3 41.9,35.7 42.8,36.3 42.6,35.1 43.3,34.3 42.4,34.1 41.9,33 41.5,34.1 40.5,34.2 41.2,35.1 
					"/>
		<polygon class="st4" points="65.8,2.8 67.1,2.9 67.7,4.1 68.1,2.7 69.3,2.4 68.4,1.5 68.4,0 67.4,0.8 66.3,0.3 66.6,1.7 		"/>
		<polygon class="st2" points="55.1,30.2 55.9,29.6 56.8,30.2 56.7,29 57.4,28.2 56.4,28 56,26.9 55.5,28 54.5,28.2 55.2,29 		"/>
		<path class="st2" d="M47.5,26.8c0.6,0.7,1.5,0.6,2.1-0.1c0.6-0.7,0.5-1.9-0.1-2.5c-0.6-0.7-1.5-0.6-2.1,0.1
			C46.9,25,46.9,26.1,47.5,26.8z"/>
		<path class="st30" d="M66.8,9.4c0.4,0.5,1.1,0.4,1.5-0.1c0.4-0.5,0.4-1.3-0.1-1.8C67.9,7,67.2,7,66.8,7.5
			C66.4,8.1,66.4,8.9,66.8,9.4z"/>
		<path class="st30" d="M65.1,30.5c0.4,0.5,1.1,0.4,1.5-0.1c0.4-0.5,0.4-1.3-0.1-1.8c-0.4-0.5-1.1-0.4-1.5,0.1
			C64.7,29.2,64.7,30,65.1,30.5z"/>
		<path class="st1" d="M47.3,38.4c0.4,0.5,1.1,0.4,1.5-0.1c0.4-0.5,0.4-1.3-0.1-1.8c-0.4-0.5-1.1-0.4-1.5,0.1
			C46.8,37.1,46.8,37.9,47.3,38.4z"/>
		<path class="st2" d="M73.8,24.1c0.4,0.5,1.1,0.4,1.5-0.1c0.4-0.5,0.4-1.3-0.1-1.8c-0.4-0.5-1.1-0.4-1.5,0.1
			C73.4,22.8,73.4,23.6,73.8,24.1z"/>
		<path class="st4" d="M48.2,15.4c0.4,0.5,1.1,0.4,1.5-0.1c0.4-0.5,0.4-1.3-0.1-1.8c-0.4-0.5-1.1-0.4-1.5,0.1
			C47.7,14.1,47.7,15,48.2,15.4z"/>
		<g>
			<polygon class="st11" points="73.5,31.2 74.4,33.1 66.6,33.6 68.2,31.5 			"/>
			<polygon class="st11" points="60.2,42.7 59.8,42.5 61.2,40.7 77.5,39.8 78.4,41.7 			"/>
			<polygon class="st11" points="63.1,38.2 64.7,36.1 75.5,35.5 76.4,37.4 			"/>
			<polygon class="st11" points="75.3,50.7 71.9,48.9 81.5,48.4 82.4,50.3 			"/>
			<polygon class="st11" points="67.7,46.7 64.3,44.9 79.5,44.1 80.4,46 			"/>
			<polygon class="st11" points="82.9,54.7 79.4,52.9 83.5,52.7 84.4,54.6 			"/>
		</g>
	</g>
	<g>
		<g>
			<g>
				<path class="st0" d="M155.8,80.9c-1.1,7.2,1.7,13.8,6.2,14.7l3.4-23.5C161,71.1,156.9,73.7,155.8,80.9z"/>
				<path class="st5" d="M165.5,72.1L162,95.6c4.5,0.9,9-4.1,10-11.3C173.1,77.1,169.9,73,165.5,72.1z"/>
			</g>
			<polygon class="st5" points="160.6,96.7 162.2,94.3 163.1,97.2 			"/>
			<g>
				<path class="st13" d="M161.7,96.8c-0.2,0.7-0.4,1.4-0.2,2.1c0.5,1.6,0.8,2.4-0.3,4.2c-0.2,0.4-0.6,1-0.6,1.5
					c-0.2,1.9,0.1,3.7-0.5,5.6c-0.2,0.8,0,1.3,0.4,1.9c0.2,0.3,0.5,0,0.4-0.3c-0.8-1.2,0.2-2.8,0.5-4c0.4-1.7-0.4-3.3,0.6-5
					c1.2-2-0.4-3.7,0.2-5.8C162.2,96.7,161.8,96.4,161.7,96.8L161.7,96.8z"/>
			</g>
		</g>
		<g>
			<g>
				<path class="st4" d="M167,93c-0.8,5.2,1.2,9.9,4.4,10.6l2.5-16.9C170.7,86.1,167.7,87.9,167,93z"/>
				<path class="st10" d="M173.9,86.7l-2.5,16.9c3.2,0.7,6.4-3,7.2-8.1C179.4,90.3,177.1,87.4,173.9,86.7z"/>
			</g>
			<polygon class="st10" points="170.4,104.4 171.6,102.7 172.2,104.7 			"/>
			<g>
				<path class="st13" d="M171.2,104.4c-0.1,0.5-0.2,0.8-0.2,1.4c0.1,1.3,0.6,1.9-0.2,3.3c-0.8,1.4,0.3,3.1-0.6,4.4
					c-0.2,0.3,0.2,0.6,0.3,0.3c1-1.4-0.1-3.2,0.8-4.8c0.9-1.6-0.3-2.8,0.2-4.4C171.7,104.3,171.3,104.1,171.2,104.4L171.2,104.4z"/>
			</g>
		</g>
		<path class="st47" d="M166.2,92.9c-0.1,0.7-0.2,1.4-0.2,2c2.6-1.5,4.8-4.9,5.8-9.2C169.3,86,166.9,88,166.2,92.9z"/>
		<path class="st4" d="M167,93c-0.8,5.2,1.2,9.9,4.4,10.6l2.5-16.9C170.7,86.1,167.7,87.9,167,93z"/>
	</g>
	<polygon class="st48" points="106.8,123.2 36.7,121.4 37,106.3 107.1,108.1 	"/>
	<text transform="matrix(0.833 2.165152e-02 -1.803845e-02 0.9998 36.7216 121.0912)"><tspan x="0" y="0" class="st6 st49 st50">P</tspan><tspan x="13.2" y="0" class="st6 st49 st51">ajarillo</tspan><tspan x="81.9" y="0" class="st49 st52"> </tspan></text>
</g>
<polygon class="st48" points="160.4,124.1 111.4,125 113,107.4 162,106.5 "/>
<text transform="matrix(0.7635 -1.432524e-02 -9.539200e-02 0.9954 111.5612 122.8841)" class="st53 st49 st54">FLOW</text>
</svg>
